<?xml version="1.0" encoding="UTF-8" standalone="no"?>
<!-- Created with Inkscape (http://www.inkscape.org/) -->

<svg
   width="321.31311mm"
   height="131.89693mm"
   viewBox="0 0 321.31311 131.89693"
   version="1.1"
   id="svg1"
   inkscape:version="1.4 (86a8ad7, 2024-10-11)"
   sodipodi:docname="logo_odatis.svg"
   xmlns:inkscape="http://www.inkscape.org/namespaces/inkscape"
   xmlns:sodipodi="http://sodipodi.sourceforge.net/DTD/sodipodi-0.dtd"
   xmlns="http://www.w3.org/2000/svg"
   xmlns:svg="http://www.w3.org/2000/svg">
  <sodipodi:namedview
     id="namedview1"
     pagecolor="#ffffff"
     bordercolor="#000000"
     borderopacity="0.25"
     inkscape:showpageshadow="2"
     inkscape:pageopacity="0.0"
     inkscape:pagecheckerboard="0"
     inkscape:deskcolor="#d1d1d1"
     inkscape:document-units="mm"
     inkscape:zoom="0.49264169"
     inkscape:cx="779.47117"
     inkscape:cy="482.0948"
     inkscape:window-width="1366"
     inkscape:window-height="705"
     inkscape:window-x="1907"
     inkscape:window-y="1204"
     inkscape:window-maximized="1"
     inkscape:current-layer="layer1" />
  <defs
     id="defs1" />
  <g
     inkscape:label="Calque 1"
     inkscape:groupmode="layer"
     id="layer1"
     transform="translate(100.99756,-20.993739)">
    <g
       id="g2"
       transform="translate(158.19597,-4.2275016)">
      <path
         style="fill:#009de2"
         d="m -204.57254,146.26614 c 0.19099,-0.0764 0.4192,-0.067 0.50711,0.0209 0.0879,0.0879 -0.0684,0.15046 -0.34726,0.13897 -0.30823,-0.0127 -0.37092,-0.0754 -0.15985,-0.15985 z m -4.64171,-1.8547 c 0.25743,-0.0671 0.61462,-0.0627 0.79375,0.01 0.17913,0.0725 -0.0315,0.12737 -0.46806,0.12197 -0.43656,-0.005 -0.58312,-0.0647 -0.32569,-0.13177 z m 5.02205,-0.006 c 0.40018,-0.0606 1.05502,-0.0606 1.4552,0 0.40019,0.0606 0.0728,0.11023 -0.7276,0.11023 -0.80037,0 -1.12779,-0.0496 -0.7276,-0.11023 z m 2.64583,0.007 c 0.25466,-0.0666 0.67138,-0.0666 0.92604,0 0.25466,0.0666 0.0463,0.121 -0.46302,0.121 -0.50932,0 -0.71768,-0.0545 -0.46302,-0.121 z m 22.63841,-1.32127 c 0.191,-0.0764 0.4192,-0.067 0.50712,0.0209 0.0879,0.0879 -0.0684,0.15046 -0.34727,0.13897 -0.30822,-0.0127 -0.37092,-0.0754 -0.15985,-0.15985 z m 4.7625,0 c 0.191,-0.0764 0.4192,-0.067 0.50712,0.0209 0.0879,0.0879 -0.0684,0.15046 -0.34727,0.13897 -0.30822,-0.0127 -0.37092,-0.0754 -0.15985,-0.15985 z m -9.73997,-0.44832 c 0,-0.0549 0.20836,-0.26331 0.46302,-0.46303 0.41964,-0.3291 0.429,-0.31974 0.0999,0.0999 -0.34564,0.44073 -0.56291,0.58089 -0.56291,0.36313 z m -35.76836,-1.40377 c 0.19099,-0.0764 0.4192,-0.067 0.50711,0.0209 0.0879,0.0879 -0.0684,0.15045 -0.34726,0.13897 -0.30823,-0.0127 -0.37092,-0.0754 -0.15985,-0.15986 z m 36.82669,0.0808 c 0,-0.0549 0.20836,-0.2633 0.46302,-0.46302 0.41964,-0.32911 0.429,-0.31975 0.0999,0.0999 -0.34565,0.44073 -0.56292,0.58089 -0.56292,0.36313 z m -18.83503,-0.34543 c 0.191,-0.0764 0.4192,-0.067 0.50712,0.0209 0.0879,0.0879 -0.0684,0.15045 -0.34726,0.13896 -0.30823,-0.0127 -0.37092,-0.0754 -0.15986,-0.15985 z m 5.02709,0 c 0.19099,-0.0764 0.4192,-0.067 0.50711,0.0209 0.0879,0.0879 -0.0684,0.15045 -0.34726,0.13896 -0.30823,-0.0127 -0.37092,-0.0754 -0.15985,-0.15985 z m 28.62461,0.0808 c 0,-0.0549 0.20836,-0.26331 0.46302,-0.46303 0.41964,-0.3291 0.429,-0.31974 0.0999,0.0999 -0.34564,0.44073 -0.56291,0.58089 -0.56291,0.36313 z m -54.50417,-0.73055 c 0,-0.12534 0.29765,-0.22789 0.66146,-0.22789 0.3638,0 0.66146,0.0456 0.66146,0.10144 0,0.0558 -0.29766,0.15835 -0.66146,0.2279 -0.36381,0.0695 -0.66146,0.0239 -0.66146,-0.10145 z m 59.81708,-0.22789 c 0.38571,-0.8099 0.50792,-0.96 0.50792,-0.62384 0,0.14196 -0.18516,0.48923 -0.41147,0.7717 -0.38798,0.48427 -0.39349,0.47583 -0.0965,-0.14786 z m -44.78544,-0.18074 c 0.191,-0.0764 0.4192,-0.067 0.50712,0.0209 0.0879,0.0879 -0.0683,0.15046 -0.34727,0.13897 -0.30822,-0.0127 -0.37092,-0.0754 -0.15985,-0.15985 z m 51.36772,-0.94374 c 1.09642,-1.16819 1.33397,-1.37824 1.33397,-1.17957 0,0.0425 -0.56554,0.60801 -1.25677,1.25677 l -1.25677,1.17957 z m -32.66499,-1.25677 c 0.26339,-0.29104 0.53843,-0.52917 0.61119,-0.52917 0.0728,0 -0.0832,0.23813 -0.3466,0.52917 -0.26339,0.29104 -0.53842,0.52916 -0.61118,0.52916 -0.0728,0 0.0832,-0.23812 0.34659,-0.52916 z m 8.46667,-0.26459 c 0.22576,-0.43656 0.47,-0.79375 0.54276,-0.79375 0.0728,0 -0.0524,0.35719 -0.27817,0.79375 -0.22576,0.43657 -0.47,0.79375 -0.54276,0.79375 -0.0728,0 0.0524,-0.35718 0.27817,-0.79375 z m 18.48518,-1.71979 c 6.9e-4,-1.45521 0.0451,-2.01676 0.0987,-1.2479 0.0536,0.76886 0.0531,1.95949 -0.001,2.64583 -0.0543,0.68635 -0.0982,0.0573 -0.0975,-1.39793 z m -38.25804,2.05721 c 0.47554,-0.0589 1.18992,-0.0577 1.5875,0.003 0.39757,0.0604 0.008,0.10855 -0.86464,0.10706 -0.87312,-0.001 -1.19841,-0.0509 -0.72286,-0.10976 z m 33.94896,-0.49176 c 0.0127,-0.30822 0.0754,-0.37092 0.15985,-0.15985 0.0764,0.191 0.067,0.4192 -0.0209,0.50712 -0.0879,0.0879 -0.15045,-0.0684 -0.13896,-0.34727 z m -43.07679,-0.55818 c 0.25743,-0.0671 0.61462,-0.0627 0.79375,0.01 0.17913,0.0725 -0.0315,0.12736 -0.46806,0.12197 -0.43656,-0.005 -0.58312,-0.0647 -0.32569,-0.13178 z m 15.67152,-0.87498 c 0.26339,-0.29104 0.53843,-0.52916 0.61119,-0.52916 0.0728,0 -0.0832,0.23812 -0.3466,0.52916 -0.26339,0.29105 -0.53842,0.52917 -0.61118,0.52917 -0.0728,0 0.0832,-0.23812 0.34659,-0.52917 z m 13.89063,0.42928 c 0,-0.055 0.20836,-0.26331 0.46302,-0.46303 0.41965,-0.3291 0.429,-0.31974 0.0999,0.0999 -0.34565,0.44073 -0.56292,0.58089 -0.56292,0.36313 z m 13.80011,-0.95844 c 0,-0.36381 0.06,-0.51263 0.13345,-0.33073 0.0734,0.1819 0.0734,0.47955 0,0.66146 -0.0734,0.1819 -0.13345,0.0331 -0.13345,-0.33073 z m -21.18756,-0.68351 c 0.0127,-0.30822 0.0754,-0.37092 0.15986,-0.15985 0.0764,0.19099 0.067,0.4192 -0.0209,0.50712 -0.0879,0.0879 -0.15045,-0.0684 -0.13897,-0.34727 z m 0.26459,-1.05833 c 0.0127,-0.30823 0.0754,-0.37092 0.15985,-0.15986 0.0764,0.191 0.067,0.4192 -0.0209,0.50712 -0.0879,0.0879 -0.15045,-0.0683 -0.13896,-0.34726 z m -23.03964,-0.73931 c 0,-0.0549 0.20836,-0.2633 0.46302,-0.46302 0.41964,-0.32911 0.429,-0.31975 0.0999,0.0999 -0.34564,0.44073 -0.56291,0.58088 -0.56291,0.36312 z m 3.12539,-0.0808 c 0.191,-0.0764 0.4192,-0.067 0.50712,0.0209 0.0879,0.0879 -0.0684,0.15046 -0.34727,0.13897 -0.30822,-0.0127 -0.37092,-0.0754 -0.15985,-0.15985 z m 3.03583,-0.0151 c 0.84206,-0.0527 2.15175,-0.0522 2.91042,0.001 0.75867,0.0533 0.0697,0.0964 -1.53102,0.0958 -1.60072,-5.9e-4 -2.22146,-0.0442 -1.3794,-0.0968 z m 17.143,-0.22311 c 0.0127,-0.30822 0.0754,-0.37092 0.15985,-0.15985 0.0764,0.191 0.067,0.4192 -0.0209,0.50712 -0.0879,0.0879 -0.15046,-0.0684 -0.13897,-0.34727 z m 5.0062,0.0545 c 0,-0.0549 0.20836,-0.2633 0.46302,-0.46302 0.41964,-0.32911 0.429,-0.31975 0.0999,0.0999 -0.34564,0.44073 -0.56291,0.58089 -0.56291,0.36313 z m -11.72595,-0.90286 -2.33323,-0.0767 0.79456,-0.90496 c 1.1423,-1.30101 2.00311,-2.86408 2.96094,-5.3765 0.71765,-1.88242 0.96867,-2.26324 1.73171,-2.62711 0.49082,-0.23406 0.94168,-0.37445 1.00191,-0.31199 0.19853,0.20589 -0.86036,6.43372 -1.34639,7.91877 l -0.47626,1.45521 z m 6.99414,0.006 c -0.0425,-0.46431 1.90067,-6.20669 2.73862,-8.09302 0.66573,-1.49863 0.71589,-1.54438 1.53911,-1.40351 2.82151,0.48283 4.31757,0.46663 6.01033,-0.0651 4.24861,-1.33447 8.46666,-5.03248 8.46666,-7.42281 0,-0.75918 0.501,-0.65727 1.66352,0.33837 l 1.00206,0.85822 -1.2015,0.8469 c -1.50799,1.06293 -2.08815,2.00096 -2.96911,4.80061 -0.63535,2.01912 -0.66441,2.28774 -0.31492,2.91041 0.21177,0.37729 0.61495,0.68599 0.89596,0.68599 0.42855,0 0.56295,-0.31071 0.83357,-1.92696 0.40479,-2.41763 1.02474,-3.42461 3.04187,-4.94092 l 1.5997,-1.20252 1.29603,0.72791 c 0.71282,0.40035 1.29616,0.89658 1.29631,1.10273 1.4e-4,0.20616 -0.0724,0.30222 -0.16109,0.21347 -0.0887,-0.0887 -0.62217,0.12953 -1.18537,0.48507 -0.56321,0.35553 -1.11567,0.64825 -1.22771,0.65048 -0.6338,0.0126 -0.84817,0.45553 -0.61461,1.2699 0.19754,0.68878 0.13398,1.03756 -0.33507,1.83856 -0.31838,0.54369 -0.69749,1.01027 -0.84248,1.03684 -0.80621,0.14774 -5.73436,2.68962 -5.41149,2.79118 0.21196,0.0667 0.0693,0.0732 -0.31704,0.0144 -0.38633,-0.0587 -0.77197,0.006 -0.85697,0.1433 -0.085,0.13755 -0.58789,0.33137 -1.1175,0.43073 -0.52962,0.0994 -1.59329,0.45942 -2.3637,0.80013 -0.77041,0.34071 -1.46949,0.55073 -1.55352,0.4667 -0.084,-0.084 -0.15277,-0.0436 -0.15277,0.0898 0,0.13339 -0.26789,0.25143 -0.59531,0.2623 -0.32742,0.0109 -2.02406,0.33279 -3.77031,0.71538 -1.74625,0.38259 -3.61351,0.76455 -4.14946,0.8488 -0.61035,0.0959 -1.01904,0.32294 -1.09379,0.60753 -0.0656,0.24989 -0.13314,0.30349 -0.15002,0.11909 z m 25.23702,-0.32619 c 0.26339,-0.29105 0.53842,-0.52917 0.61118,-0.52917 0.0728,0 -0.0832,0.23812 -0.3466,0.52917 -0.26339,0.29104 -0.53842,0.52916 -0.61118,0.52916 -0.0728,0 0.0832,-0.23812 0.3466,-0.52916 z m -44.90829,-0.19176 c 0.47555,-0.0589 1.18993,-0.0577 1.5875,0.003 0.39758,0.0604 0.008,0.10856 -0.86463,0.10707 -0.87313,-0.001 -1.19842,-0.0509 -0.72287,-0.10977 z m 2.17808,-0.0532 c -0.21829,-0.1382 -1.49423,-0.43888 -2.83544,-0.66817 -9.16357,-1.56663 -18.85255,-5.9844 -26.47819,-12.07297 -2.16441,-1.72813 -2.44046,-2.04199 -2.30824,-2.62434 0.23744,-1.04577 4.02997,-8.58159 4.55635,-9.05355 0.26119,-0.23418 1.27856,-0.74638 2.26083,-1.13822 0.98226,-0.39183 1.78594,-0.79761 1.78594,-0.90173 0,-0.3712 -0.84655,-2.66624 -1.0239,-2.77584 -0.0993,-0.0614 -0.89187,0.0557 -1.76117,0.26014 -0.86931,0.20447 -2.14611,0.37363 -2.83733,0.3759 -1.15374,0.004 -1.25677,-0.0483 -1.25677,-0.63526 0,-0.38953 0.28433,-0.85153 0.7276,-1.18224 0.40018,-0.29857 0.5681,-0.54663 0.37314,-0.55124 -0.52382,-0.0124 -1.34641,-1.108413 -1.35652,-1.807455 -0.005,-0.334648 0.18694,-0.989492 0.42618,-1.455208 0.715,-1.391868 2.71019,-3.790939 3.42275,-4.115599 0.36579,-0.166668 1.62569,-0.303033 2.79977,-0.303033 2.07682,0 2.15359,-0.02283 2.83182,-0.842267 0.99567,-1.202955 3.42599,-3.59114 4.44702,-4.369916 0.47853,-0.364992 1.6165,-0.919145 2.52883,-1.231449 1.38104,-0.472751 1.73624,-0.722881 2.12139,-1.493868 0.25444,-0.509323 0.4628,-1.429789 0.46302,-2.04548 3.6e-4,-0.964656 -0.0884,-1.141728 -0.64187,-1.280641 -0.91171,-0.228826 -1.57136,-1.967645 -1.34501,-3.545408 0.0945,-0.659045 0.81788,-2.715819 1.6074,-4.570609 1.73557,-4.077298 2.07616,-5.427604 1.71103,-6.783598 -0.5833,-2.166212 -1.92034,-2.726519 -6.25701,-2.622101 l -3.24134,0.07804 -0.87733,-0.830708 c -1.27896,-1.210994 -1.72017,-1.25465 -3.61648,-0.357837 -0.92069,0.435419 -1.90525,0.79167 -2.1879,0.79167 -0.91239,0 -2.18581,-0.686916 -3.52324,-1.900527 l -1.30654,-1.18558 0.0191,-1.830384 c 0.0249,-2.394252 -0.54398,-3.557516 -2.11088,-4.316039 -1.44396,-0.699008 -4.06591,-0.723259 -6.60473,-0.06109 l -1.78462,0.465461 0.43138,-0.679151 c 1.62051,-2.551302 3.79531,-5.279188 6.25158,-7.841448 3.08705,-3.220261 5.16378,-5.002965 8.66024,-7.434113 l 2.24896,-1.563737 0.79592,1.068615 c 0.43776,0.587738 1.33073,1.345762 1.98438,1.684496 1.24111,0.64317 2.09448,0.660926 6.92339,0.144053 0.84988,-0.09097 2.06858,-0.02471 2.80792,0.152651 l 1.30631,0.313378 0.17238,1.854788 c 0.0948,1.020133 0.34546,2.189479 0.557,2.598546 0.45372,0.877405 3.87445,4.032415 5.07367,4.679552 0.81204,0.438206 0.87997,0.430958 2.41433,-0.257624 1.7985,-0.80712 2.91045,-0.888594 4.05434,-0.297068 0.79563,0.411439 0.79568,0.411417 2.37078,-1.046846 1.81683,-1.682066 2.4948,-1.885009 5.58874,-1.672946 1.71475,0.117532 2.29325,0.276876 3.1429,0.865684 0.92084,0.63814 1.20199,0.702602 2.42984,0.557121 0.76368,-0.09048 2.79453,-0.57035 4.51299,-1.066369 3.07579,-0.8878 3.15277,-0.929169 4.94024,-2.654825 0.99867,-0.964134 2.2578,-1.937666 2.79807,-2.163405 0.54027,-0.225739 2.43856,-0.56113 4.21843,-0.745314 2.46185,-0.254757 3.46171,-0.474301 4.17899,-0.917608 1.15417,-0.713313 2.03875,-2.439686 2.03875,-3.978858 V 35.00672 l 1.52066,0.858205 c 0.83636,0.472013 2.43826,1.472543 3.55977,2.223399 l 2.0391,1.365194 -1.77382,0.868513 c -0.97561,0.477682 -2.90492,1.624379 -4.28737,2.548214 -10.86404,7.260007 -17.75727,18.265987 -19.46275,31.074907 -1.05083,7.892288 0.14966,15.592994 3.72901,23.920045 1.30273,3.030703 1.54251,2.822893 -5.03605,4.364673 -1.30969,0.30695 -2.67891,0.774 -3.04271,1.0379 -1.03671,0.75202 -1.77041,2.49658 -2.1086,5.01376 -0.17102,1.27283 -0.4756,2.90959 -0.67685,3.63723 -0.70687,2.55571 -4.35347,5.69877 -6.59307,5.68266 -0.44437,-0.003 -1.31396,-0.2355 -1.93242,-0.51623 -1.46712,-0.66595 -1.45103,-0.2208 0.0232,0.64318 2.38546,1.39797 5.1195,0.64593 8.10358,-2.22902 1.86439,-1.79621 2.73014,-3.50558 3.1826,-6.28391 0.5597,-3.43682 2.43247,-5.22965 6.42252,-6.14833 1.33749,-0.30795 2.69982,-0.73553 3.02741,-0.95017 0.62498,-0.4095 0.67307,-0.36372 2.03062,1.93293 0.12703,0.2149 -0.91977,1.57742 -2.9475,3.83646 -4.0304,4.49015 -6.65435,7.71661 -7.84687,9.64864 -0.74758,1.21118 -1.22595,1.66621 -2.27559,2.16454 -1.58831,0.75408 -3.8741,2.88455 -5.00051,4.66072 -0.44824,0.70679 -1.18495,2.26533 -1.63714,3.46342 -1.17113,3.10296 -1.48501,3.33536 -4.66329,3.45273 -1.42244,0.0525 -2.76485,-0.0175 -2.98313,-0.15575 z m -18.04878,-15.47884 c 1.95091,-2.08553 2.35236,-3.09878 1.77509,-4.48036 -0.22533,-0.5393 -0.68628,-1.10656 -1.02434,-1.26059 -1.53169,-0.69789 -5.72072,2.82819 -5.72072,4.81537 0,1.32961 0.52023,2.32303 1.27721,2.4389 1.92041,0.29397 2.05294,0.23966 3.69276,-1.51332 z m 11.37979,-8.93103 c 1.13033,-0.42044 2.01804,-1.05487 3.53325,-2.52516 l 2.02365,-1.96365 -0.14217,-1.56778 -0.14216,-1.567771 h 0.79102 c 1.10839,0 2.42424,-0.501846 2.70849,-1.032977 0.13192,-0.246482 0.32251,-1.178828 0.42355,-2.071878 0.24406,-2.157207 0.73856,-2.884654 3.00311,-4.417831 1.39821,-0.946633 1.86064,-1.401558 1.74017,-1.71192 -0.36589,-0.942612 -1.16923,-4.763769 -1.34042,-6.375812 -0.25827,-2.432033 -0.47908,-2.86425 -1.76035,-3.445829 -0.61955,-0.281214 -1.24551,-0.513631 -1.39103,-0.516481 -0.14552,-0.0029 -0.6186,0.67229 -1.05128,1.500312 -0.49553,0.9483 -1.95901,2.718301 -3.9542,4.782403 l -3.1675,3.27691 0.024,2.198071 c 0.0132,1.213496 0.22587,2.892523 0.4747,3.748441 l 0.4507,1.55037 -1.49801,1.39434 c -2.56261,2.385272 -5.11142,3.296662 -7.31993,2.617412 -0.65241,-0.20065 -0.72237,-0.13567 -1.12448,1.04447 -0.23584,0.69214 -0.42879,1.58749 -0.42879,1.98967 0,0.64598 -0.1463,0.77256 -1.25474,1.08563 -1.59571,0.45069 -1.70872,0.98335 -0.39331,1.85385 1.43436,0.94922 1.67104,0.98792 5.16552,0.84465 2.28272,-0.0936 3.52593,-0.2787 4.63021,-0.68944 z m 29.95232,11.58485 c 0,-0.38658 5.21099,-5.52143 7.25157,-7.1456 l 1.56303,-1.24407 1.12756,1.10662 c 1.2223,1.1996 1.22938,1.32403 0.16764,2.94739 -1.46516,2.2402 -5.31368,4.18014 -8.98532,4.52927 -0.72569,0.069 -1.12448,3.4e-4 -1.12448,-0.19361 z m 147.339174,-12.2639 c -0.329108,-0.41964 -0.31975,-0.429 0.09989,-0.0999 0.254662,0.19972 0.463021,0.40808 0.463021,0.46302 0,0.21776 -0.217272,0.0776 -0.562915,-0.36313 z m -88.615914,-47.095834 -0.9118,-0.992187 0.99219,0.911798 c 0.9235,0.848682 1.11384,1.072577 0.9118,1.072577 -0.0442,0 -0.4907,-0.446485 -0.99219,-0.992188 z"
         id="path7" />
      <path
         style="fill:#0085cb"
         d="m -167.08485,148.40662 c -0.40071,-0.81901 -1.08639,-1.89665 -1.52374,-2.39477 -0.43735,-0.49811 -0.74957,-0.93972 -0.69382,-0.98135 0.0557,-0.0416 0.59853,-0.21836 1.20618,-0.39273 1.53761,-0.44121 3.88284,-2.08222 4.84087,-3.38726 1.22831,-1.67322 1.59444,-3.0205 1.59883,-5.88325 0.002,-1.49355 0.13903,-2.80937 0.33073,-3.18238 0.45526,-0.88587 1.49446,-1.59961 2.58722,-1.77694 l 0.92507,-0.15011 1.24848,2.27857 1.24848,2.27857 -1.31986,2.377 c -2.07586,3.73853 -1.67577,4.24258 1.06906,1.34682 l 1.72767,-1.82268 1.37849,1.6842 1.37848,1.68421 -2.40796,1.86099 c -3.34144,2.58243 -6.36593,4.53635 -9.87392,6.37887 l -2.99171,1.57135 z m -60.29874,-2.37758 c -4.89865,-3.0246 -10.11128,-7.37598 -13.84824,-11.56019 -1.19942,-1.34297 -2.18169,-2.52135 -2.18281,-2.61862 -0.001,-0.0973 0.39759,-0.42385 0.88602,-0.72572 1.37617,-0.85051 3.2244,-2.97265 4.08149,-4.68635 1.02018,-2.03979 1.49294,-3.58404 2.17574,-7.10686 0.30981,-1.59841 0.58969,-2.9326 0.62196,-2.96487 0.0323,-0.0323 1.00651,0.71855 2.16498,1.6685 7.58047,6.216 17.483,10.76216 27.23052,12.50129 l 2.65704,0.47406 -1.86137,0.13828 c -2.28014,0.16939 -3.65804,0.78998 -4.49778,2.02578 -0.73344,1.07935 -0.66597,1.34363 0.19933,0.78079 1.26945,-0.82573 2.62334,-1.03339 7.136,-1.09454 4.07831,-0.0553 4.72143,-0.12605 5.87047,-0.64622 1.00383,-0.45443 1.78636,-0.58416 3.52356,-0.58416 2.19158,0 2.22988,0.0111 2.05731,0.59531 -0.23215,0.78592 -1.34057,2.52475 -2.20802,3.46382 -1.91002,2.0677 -4.91745,2.45906 -11.69799,1.52228 -3.77582,-0.52165 -4.19131,-0.53366 -5.61118,-0.16219 -0.84337,0.22064 -2.3924,0.87261 -3.44228,1.44882 -2.36397,1.29742 -5.08516,1.97165 -6.9967,1.73356 -1.95275,-0.24322 -1.75938,0.23523 0.32289,0.79887 2.30899,0.62502 5.65897,0.4157 8.20992,-0.51297 2.32217,-0.84539 3.42796,-0.84878 7.80521,-0.024 2.2008,0.41471 4.45409,0.66146 6.04028,0.66146 h 2.52999 l -1.17628,0.75818 c -0.64695,0.417 -1.52598,1.13138 -1.95338,1.5875 l -0.77711,0.82932 -4.64685,0.0186 c -2.55577,0.0102 -4.86676,0.10513 -5.13553,0.21089 -0.89653,0.35281 0.10917,0.78212 3.4165,1.45842 l 3.15759,0.64569 -1.79447,0.0238 c -1.38506,0.0184 -2.26036,-0.15328 -3.83646,-0.75241 -2.88745,-1.09763 -4.05197,-1.362 -6.2229,-1.41272 -1.86351,-0.0435 -1.94388,-0.0177 -3.73399,1.2007 -1.81388,1.23458 -2.2158,1.37001 -4.79785,1.61677 -1.25249,0.1197 -1.48076,0.0381 -3.66561,-1.31094 z m 41.9768,-1.10229 c -1.06888,-0.53197 -1.07469,-0.70795 -0.0375,-1.13756 1.28836,-0.53365 3.16873,-2.63523 4.74472,-5.30287 2.18362,-3.69615 2.92536,-4.27725 7.92363,-6.20758 2.99055,-1.15496 4.60548,-1.35734 5.81042,-0.72817 1.20208,0.62767 1.41982,1.50283 1.06379,4.2757 -0.36874,2.87181 -0.87331,4.07785 -2.17067,5.18833 -1.67506,1.4338 -3.00079,1.78085 -7.4994,1.96324 l -3.98952,0.16175 -2.26847,1.12447 c -1.24766,0.61847 -2.3694,1.11687 -2.49277,1.10756 -0.12337,-0.009 -0.61125,-0.2095 -1.0842,-0.44487 z m -6.15156,-3.81781 c -2.30885,-0.39346 -2.3521,-0.46817 -0.66738,-1.15289 3.373,-1.37089 4.93935,-3.21595 5.78871,-6.81872 0.47404,-2.01081 0.48067,-2.02076 1.44776,-2.17268 0.91275,-0.14339 6.26674,-1.26352 7.71841,-1.61481 0.3638,-0.088 -0.4101,0.55233 -1.71979,1.42302 -2.79376,1.85731 -4.90968,3.97986 -7.50107,7.52459 -1.03182,1.41142 -2.10984,2.69134 -2.39561,2.84427 -0.58388,0.31249 -0.64974,0.31168 -2.67103,-0.0328 z m 22.225,-14.58903 c 1.09141,-0.48889 2.60945,-1.20796 3.37344,-1.59792 1.50501,-0.76821 1.64647,-0.69893 0.89622,0.43894 -0.72436,1.0986 -1.37881,1.45937 -2.97041,1.63749 -0.78735,0.0881 -1.84826,0.2165 -2.35758,0.2853 -0.71704,0.0969 -0.47817,-0.0755 1.05833,-0.76381 z m -55.34753,-9.35794 c 0.191,-0.0764 0.4192,-0.067 0.50712,0.0209 0.0879,0.0879 -0.0684,0.15045 -0.34727,0.13896 -0.30822,-0.0127 -0.37091,-0.0754 -0.15985,-0.15985 z m 2.43086,-1.27447 c 0.79042,-0.80036 1.49667,-1.45521 1.56943,-1.45521 0.0728,0 -0.51442,0.65485 -1.30484,1.45521 -0.79043,0.80037 -1.49667,1.45521 -1.56943,1.45521 -0.0728,0 0.51442,-0.65484 1.30484,-1.45521 z m -4.21244,0.24254 c 0.0127,-0.30823 0.0754,-0.37092 0.15985,-0.15986 0.0764,0.191 0.067,0.4192 -0.0209,0.50712 -0.0879,0.0879 -0.15045,-0.0683 -0.13896,-0.34726 z m 1.43432,-4.34358 c 0.56839,-0.58208 1.09296,-1.05833 1.16572,-1.05833 0.0728,0 -0.33275,0.47625 -0.90114,1.05833 -0.56839,0.58208 -1.09297,1.05833 -1.16573,1.05833 -0.0728,0 0.33276,-0.47625 0.90115,-1.05833 z m 5.18026,0.37483 c 0.0127,-0.30823 0.0754,-0.37092 0.15985,-0.15986 0.0764,0.191 0.067,0.4192 -0.0209,0.50712 -0.0879,0.0879 -0.15045,-0.0683 -0.13896,-0.34726 z m 1.76505,-4.78339 c 0.1819,-0.0734 0.47956,-0.0734 0.66146,0 0.1819,0.0734 0.0331,0.13345 -0.33073,0.13345 -0.3638,0 -0.51263,-0.06 -0.33073,-0.13345 z m 1.71979,-0.0143 c 0.40018,-0.0606 1.05503,-0.0606 1.45521,0 0.40018,0.0606 0.0728,0.11022 -0.7276,0.11022 -0.80037,0 -1.12779,-0.0496 -0.72761,-0.11022 z m -14.88281,-0.43956 c 0,-0.0549 0.20836,-0.2633 0.46302,-0.46302 0.41964,-0.3291 0.429,-0.31975 0.0999,0.0999 -0.34564,0.44073 -0.56291,0.58089 -0.56291,0.36312 z m 4.25422,-2.43569 c 0.0127,-0.30823 0.0754,-0.37092 0.15985,-0.15985 0.0764,0.19099 0.067,0.4192 -0.0209,0.50711 -0.0879,0.0879 -0.15045,-0.0683 -0.13896,-0.34726 z m 7.91661,0.0503 c 0,-0.0572 0.18478,-0.17489 0.41062,-0.26155 0.23546,-0.0904 0.34166,-0.046 0.24897,0.10399 -0.15538,0.2514 -0.65959,0.37185 -0.65959,0.15756 z m 13.26231,-1.6158 c 0.38202,-0.43657 0.75958,-0.97235 0.839,-1.19063 0.1244,-0.34188 0.14731,-0.33957 0.1653,0.0166 0.0115,0.22743 -0.36606,0.76321 -0.839,1.19062 l -0.8599,0.77711 z m -12.71225,-0.0221 c 0.0127,-0.30823 0.0754,-0.37092 0.15985,-0.15985 0.0764,0.19099 0.067,0.4192 -0.0209,0.50711 -0.0879,0.0879 -0.15045,-0.0684 -0.13896,-0.34726 z m -13.82883,-0.29099 c 0.19099,-0.0764 0.41919,-0.067 0.50711,0.0209 0.0879,0.0879 -0.0684,0.15046 -0.34726,0.13897 -0.30823,-0.0127 -0.37092,-0.0754 -0.15985,-0.15986 z m -1.51701,-0.50276 c 0.0127,-0.30823 0.0754,-0.37092 0.15986,-0.15985 0.0764,0.19099 0.067,0.4192 -0.0209,0.50711 -0.0879,0.0879 -0.15046,-0.0683 -0.13897,-0.34726 z m 5.79995,-0.11024 c -0.23847,-0.15411 -0.2711,-0.2581 -0.0818,-0.26054 0.17331,-0.002 0.3887,0.11501 0.47863,0.26054 0.20302,0.32848 0.11143,0.32848 -0.39687,0 z m 24.29206,-3.091162 c 0.19099,-0.07643 0.4192,-0.06703 0.50711,0.02089 0.0879,0.08792 -0.0684,0.150453 -0.34726,0.138965 -0.30823,-0.0127 -0.37092,-0.07539 -0.15985,-0.159853 z m -5.24206,-1.539051 c 0.34177,-0.363802 0.68094,-0.661458 0.7537,-0.661458 0.0728,0 -0.14734,0.297656 -0.48912,0.661458 -0.34177,0.363802 -0.68094,0.661458 -0.7537,0.661458 -0.0728,0 0.14734,-0.297656 0.48912,-0.661458 z m 7.7245,-1.852083 c 0.005,-0.436563 0.0647,-0.583125 0.13177,-0.325694 0.0671,0.257431 0.0627,0.614618 -0.01,0.79375 -0.0725,0.179131 -0.12737,-0.03149 -0.12197,-0.468056 z m -30.74325,-1.025937 c 0,-0.05494 0.20836,-0.263302 0.46302,-0.463021 0.41964,-0.329107 0.429,-0.319749 0.0999,0.0999 -0.34564,0.440729 -0.56291,0.580887 -0.56291,0.363126 z m 7.14375,-2.38125 c 0,-0.05494 0.20836,-0.263302 0.46302,-0.463021 0.41964,-0.329107 0.429,-0.319749 0.0999,0.0999 -0.34564,0.440729 -0.56291,0.580887 -0.56291,0.363126 z m 15.662,-1.09073 c 0.005,-0.436563 0.0647,-0.583125 0.13177,-0.325694 0.0671,0.257431 0.0627,0.614619 -0.01,0.79375 -0.0725,0.179132 -0.12737,-0.03149 -0.12197,-0.468056 z m 12.53314,-0.739015 c 0.0993,-0.260938 0.2473,-0.407782 0.32876,-0.32632 0.0815,0.08146 1.7e-4,0.294956 -0.18065,0.474432 -0.26131,0.259362 -0.2917,0.228971 -0.14811,-0.148112 z m -25.02014,-1.592734 c 0,-0.04554 0.38695,-0.432488 0.85989,-0.859896 l 0.8599,-0.777105 -0.77711,0.859895 c -0.72437,0.801544 -0.94268,0.981512 -0.94268,0.777106 z m 14.81667,-1.852084 c 0,-0.04553 0.38695,-0.432487 0.85989,-0.859895 l 0.8599,-0.777106 -0.77711,0.859896 c -0.72437,0.801543 -0.94268,0.981512 -0.94268,0.777105 z m 9.2813,-0.865299 c 0.0127,-0.308225 0.0754,-0.37092 0.15985,-0.159853 0.0764,0.190996 0.067,0.419199 -0.0209,0.507118 -0.0879,0.08792 -0.15046,-0.06835 -0.13897,-0.347265 z m -18.54172,-0.474722 c 0,-0.05494 0.20836,-0.263301 0.46302,-0.463021 0.41964,-0.329107 0.429,-0.319749 0.0999,0.0999 -0.34564,0.440729 -0.56291,0.580887 -0.56291,0.363126 z m 18.29803,-1.223022 c 0,-0.363802 0.06,-0.51263 0.13345,-0.330729 0.0734,0.181901 0.0734,0.479558 0,0.661459 -0.0734,0.181901 -0.13345,0.03307 -0.13345,-0.33073 z m -17.18812,-1.190625 c 0.005,-0.436562 0.0647,-0.583124 0.13178,-0.325693 0.0671,0.257431 0.0627,0.614618 -0.01,0.79375 -0.0725,0.179131 -0.12736,-0.03149 -0.12197,-0.468057 z m 11.32551,0.296981 c 0,-0.05494 0.20836,-0.263302 0.46302,-0.463021 0.41964,-0.329108 0.429,-0.319749 0.0999,0.09989 -0.34564,0.440729 -0.56291,0.580887 -0.56291,0.363126 z m 5.59802,-1.223022 c 0,-0.363802 0.0601,-0.512631 0.13345,-0.33073 0.0734,0.181902 0.0734,0.479558 0,0.661459 -0.0734,0.181901 -0.13345,0.03307 -0.13345,-0.330729 z m -18.8063,-4.916841 c 0.0127,-0.308224 0.0754,-0.370919 0.15985,-0.159852 0.0764,0.190996 0.067,0.419199 -0.0209,0.507118 -0.0879,0.08792 -0.15045,-0.06835 -0.13896,-0.347266 z m 3.46047,-9.899827 c 0,-0.363802 0.06,-0.51263 0.13345,-0.330729 0.0734,0.181901 0.0734,0.479558 0,0.661459 -0.0734,0.181901 -0.13345,0.03307 -0.13345,-0.33073 z m -1.12014,-2.579687 -0.64143,-0.727604 0.7276,0.641433 c 0.68006,0.599516 0.84894,0.813775 0.64144,0.813775 -0.0474,0 -0.37482,-0.327422 -0.72761,-0.727604 z m -5.20046,-1.04325 c 0.25743,-0.06708 0.61462,-0.06267 0.79375,0.0098 0.17913,0.07248 -0.0315,0.127362 -0.46805,0.12197 -0.43657,-0.0054 -0.58313,-0.06469 -0.3257,-0.131774 z m -4.58912,-1.073417 -0.64143,-0.727604 0.7276,0.641433 c 0.68006,0.599516 0.84894,0.813775 0.64143,0.813775 -0.0474,0 -0.37481,-0.327422 -0.7276,-0.727604 z m -9.74523,-1.760044 c -0.38617,-0.411054 -0.55538,-0.855004 -0.47903,-1.256771 l 0.11806,-0.621206 0.036,0.644406 c 0.0198,0.354423 0.29491,0.91997 0.61132,1.256771 0.3164,0.3368 0.51575,0.612365 0.44299,0.612365 -0.0728,0 -0.40098,-0.286004 -0.72937,-0.635565 z m -12.03719,-6.838915 c 4.45694,-6.210923 10.12867,-11.818178 16.19468,-16.010598 1.3186,-0.911324 2.46716,-1.544162 2.55236,-1.406308 0.16291,0.263595 -0.19151,0.54929 -3.82376,3.082371 -3.05291,2.129052 -9.48302,8.592848 -11.64748,11.708505 -0.94269,1.356959 -1.69822,2.632212 -1.67896,2.833895 0.0193,0.201683 -0.0403,0.349247 -0.13229,0.32792 -0.092,-0.02133 -0.62834,0.161936 -1.19181,0.407251 -0.56348,0.245315 -1.07963,0.446027 -1.14702,0.446027 -0.0674,0 0.32604,-0.625078 0.87428,-1.389063 z m 38.93422,-4.342416 c 0.1819,-0.0734 0.47955,-0.0734 0.66146,0 0.1819,0.0734 0.0331,0.133452 -0.33073,0.133452 -0.36381,0 -0.51263,-0.06005 -0.33073,-0.133452 z m 4.10607,-1.331042 c 0.25744,-0.06708 0.61462,-0.06267 0.79375,0.0098 0.17914,0.07248 -0.0315,0.127362 -0.46805,0.12197 -0.43656,-0.0054 -0.58313,-0.06469 -0.3257,-0.131774 z m 14.15018,-0.797121 c 0.32742,-0.06306 0.8632,-0.06306 1.19062,0 0.32742,0.06306 0.0595,0.114662 -0.59531,0.114662 -0.65484,0 -0.92273,-0.0516 -0.59531,-0.114662 z m -3.15847,-1.316932 c 0.191,-0.07643 0.4192,-0.06703 0.50712,0.02089 0.0879,0.08792 -0.0684,0.150453 -0.34726,0.138964 -0.30823,-0.0127 -0.37092,-0.07539 -0.15986,-0.159852 z m -3.19153,-0.270568 c 0.32742,-0.06306 0.8632,-0.06306 1.19062,0 0.32742,0.06306 0.0595,0.114662 -0.59531,0.114662 -0.65484,0 -0.92273,-0.0516 -0.59531,-0.114662 z m 17.26406,-2.5914 c 0.34177,-0.363802 0.68094,-0.661459 0.7537,-0.661459 0.0728,0 -0.14734,0.297657 -0.48912,0.661459 -0.34177,0.363802 -0.68094,0.661458 -0.7537,0.661458 -0.0728,0 0.14735,-0.297656 0.48912,-0.661458 z m 6.1566,-2.432312 c 0.25743,-0.06708 0.61462,-0.06267 0.79375,0.0098 0.17913,0.07248 -0.0315,0.127362 -0.46806,0.12197 -0.43656,-0.0054 -0.58312,-0.06469 -0.32569,-0.131773 z m 12.23194,-2.627718 c -2.52825,-1.777018 -5.25999,-3.275066 -5.44027,-2.983367 -0.096,0.155271 -0.23979,-0.293164 -0.31963,-0.996521 -0.0798,-0.703358 -0.0995,-1.325419 -0.0436,-1.382357 0.2733,-0.278659 9.1108,5.052728 9.1108,5.496263 0,0.217221 -1.41989,0.847583 -1.82542,0.810392 -0.0874,-0.008 -0.75426,-0.433003 -1.48187,-0.94441 z m -6.19646,0.165238 c 0.38571,-0.809898 0.50792,-0.959998 0.50792,-0.623834 0,0.141961 -0.18516,0.489227 -0.41147,0.771702 -0.38798,0.484268 -0.39349,0.475826 -0.0965,-0.147868 z m 0.5497,-1.5875 c 0,-0.363802 0.0601,-0.51263 0.13345,-0.330729 0.0734,0.181901 0.0734,0.479557 0,0.661458 -0.0734,0.181901 -0.13345,0.03307 -0.13345,-0.330729 z"
         id="path6" />
      <path
         style="fill:#42aa32"
         d="m -194.53491,153.4154 c 0.1819,-0.0734 0.47955,-0.0734 0.66146,0 0.1819,0.0734 0.0331,0.13345 -0.33073,0.13345 -0.36381,0 -0.51263,-0.06 -0.33073,-0.13345 z m 1.86862,-0.006 c 0.19099,-0.0764 0.4192,-0.067 0.50712,0.0209 0.0879,0.0879 -0.0684,0.15045 -0.34727,0.13896 -0.30822,-0.0127 -0.37092,-0.0754 -0.15985,-0.15985 z m 1.90169,-0.44098 c 0,-0.0611 0.31232,-0.31581 0.69403,-0.56592 0.38172,-0.25011 0.61322,-0.32398 0.51444,-0.16415 -0.18877,0.30544 -1.20847,0.92146 -1.20847,0.73007 z m 3.175,-2.68557 c 0.93748,-0.94589 1.76404,-1.7198 1.8368,-1.7198 0.0728,0 -0.63474,0.77391 -1.57222,1.7198 -0.93747,0.94588 -1.76403,1.71979 -1.83679,1.71979 -0.0728,0 0.63473,-0.77391 1.57221,-1.71979 z m -8.00365,1.26848 c 0.32743,-0.0631 0.86321,-0.0631 1.19063,0 0.32742,0.0631 0.0595,0.11466 -0.59531,0.11466 -0.65485,0 -0.92274,-0.0516 -0.59532,-0.11466 z m -2.36471,-0.2586 c 0.191,-0.0764 0.4192,-0.067 0.50712,0.0209 0.0879,0.0879 -0.0684,0.15045 -0.34727,0.13896 -0.30822,-0.0127 -0.37092,-0.0754 -0.15985,-0.15985 z m -1.5875,-0.26458 c 0.191,-0.0764 0.4192,-0.067 0.50712,0.0209 0.0879,0.0879 -0.0683,0.15046 -0.34727,0.13897 -0.30822,-0.0127 -0.37092,-0.0754 -0.15985,-0.15985 z m -1.86862,-4.51091 c 0.61846,-0.0557 1.6305,-0.0557 2.24896,0 0.61846,0.0557 0.11245,0.10128 -1.12448,0.10128 -1.23693,0 -1.74294,-0.0456 -1.12448,-0.10128 z m 3.84149,0.0104 c 0.25744,-0.0671 0.61462,-0.0627 0.79375,0.01 0.17914,0.0725 -0.0315,0.12736 -0.46805,0.12197 -0.43656,-0.005 -0.58313,-0.0647 -0.3257,-0.13177 z m 2.52505,-0.26197 c 0.19099,-0.0764 0.4192,-0.067 0.50712,0.0209 0.0879,0.0879 -0.0684,0.15046 -0.34727,0.13897 -0.30823,-0.0127 -0.37092,-0.0754 -0.15985,-0.15985 z m 1.32291,-0.26459 c 0.191,-0.0764 0.4192,-0.067 0.50712,0.0209 0.0879,0.0879 -0.0684,0.15045 -0.34726,0.13897 -0.30823,-0.0127 -0.37092,-0.0754 -0.15986,-0.15986 z m 1.32292,-0.26458 c 0.191,-0.0764 0.4192,-0.067 0.50712,0.0209 0.0879,0.0879 -0.0684,0.15045 -0.34727,0.13896 -0.30822,-0.0127 -0.37092,-0.0754 -0.15985,-0.15985 z m 13.75833,0 c 0.191,-0.0764 0.4192,-0.067 0.50712,0.0209 0.0879,0.0879 -0.0684,0.15045 -0.34726,0.13896 -0.30823,-0.0127 -0.37092,-0.0754 -0.15986,-0.15985 z m -12.43541,-0.26458 c 0.19099,-0.0764 0.4192,-0.067 0.50712,0.0209 0.0879,0.0879 -0.0684,0.15046 -0.34727,0.13897 -0.30822,-0.0127 -0.37092,-0.0754 -0.15985,-0.15985 z m 14.93606,-0.009 c 0.40218,-0.0608 0.99749,-0.0592 1.32291,0.004 0.32543,0.0628 -0.004,0.11256 -0.73124,0.11057 -0.7276,-0.002 -0.99386,-0.0534 -0.59167,-0.11418 z m 4.23473,-0.25808 c 0.25743,-0.0671 0.61462,-0.0627 0.79375,0.01 0.17913,0.0725 -0.0315,0.12737 -0.46806,0.12197 -0.43656,-0.005 -0.58312,-0.0647 -0.32569,-0.13177 z m -27.91549,-0.79753 c 0.32911,-0.0633 0.80536,-0.0609 1.05833,0.005 0.25296,0.0662 -0.0163,0.11801 -0.5984,0.11507 -0.58208,-0.003 -0.78905,-0.0571 -0.45993,-0.12041 z m 46.36514,-8.62691 c 0,-0.0455 0.38695,-0.43248 0.8599,-0.85989 l 0.85989,-0.77711 -0.7771,0.8599 c -0.72437,0.80154 -0.94269,0.98151 -0.94269,0.7771 z m 2.23338,-1.88699 c 0.28248,-0.2263 0.62974,-0.41147 0.77171,-0.41147 0.33616,0 0.18606,0.12221 -0.62384,0.50793 -0.62369,0.29703 -0.63213,0.29152 -0.14787,-0.0965 z m -2.76255,-0.24678 c 0,-0.0549 0.20836,-0.2633 0.46303,-0.46302 0.41964,-0.32911 0.429,-0.31975 0.0999,0.0999 -0.34564,0.44073 -0.56292,0.58088 -0.56292,0.36312 z m 11.77396,-3.86885 c 0.71667,-0.72761 1.36256,-1.32292 1.43532,-1.32292 0.0728,0 -0.45407,0.59531 -1.17073,1.32292 -0.71667,0.7276 -1.36256,1.32291 -1.43532,1.32291 -0.0728,0 0.45407,-0.59531 1.17073,-1.32291 z m -12.8819,-0.18074 c 0.191,-0.0764 0.4192,-0.067 0.50712,0.0209 0.0879,0.0879 -0.0684,0.15046 -0.34727,0.13897 -0.30822,-0.0127 -0.37091,-0.0754 -0.15985,-0.15985 z m 4.79597,-2.66872 c 1.1255,-1.12493 2.36215,-2.46205 2.74811,-2.97138 0.38596,-0.50932 0.70307,-0.85311 0.70468,-0.76398 0.009,0.48024 -4.16942,5.06904 -5.03921,5.53454 -0.25297,0.13539 0.46092,-0.67425 1.58642,-1.79918 z m 6.10156,1.16206 c 0,-0.0549 0.20836,-0.2633 0.46302,-0.46302 0.41964,-0.32911 0.429,-0.31975 0.0999,0.0999 -0.34564,0.44072 -0.56291,0.58088 -0.56291,0.36312 z m 1.85208,-1.6199 c 0.34178,-0.3638 0.68094,-0.66145 0.7537,-0.66145 0.0728,0 -0.14734,0.29765 -0.48911,0.66145 -0.34178,0.36381 -0.68094,0.66146 -0.7537,0.66146 -0.0728,0 0.14734,-0.29765 0.48911,-0.66146 z m -1.91823,-2.95335 c 0.1819,-0.0734 0.47956,-0.0734 0.66146,0 0.1819,0.0734 0.0331,0.13345 -0.33073,0.13345 -0.3638,0 -0.51263,-0.0601 -0.33073,-0.13345 z m -1.83554,-0.27009 c 0.19099,-0.0764 0.41919,-0.067 0.50711,0.0209 0.0879,0.0879 -0.0684,0.15046 -0.34726,0.13897 -0.30823,-0.0127 -0.37092,-0.0754 -0.15985,-0.15985 z m -79.72227,-7.41626 c -0.83259,-0.20027 -0.99357,-0.48906 -0.78979,-1.41687 0.35567,-1.61936 3.60702,-4.47988 5.09195,-4.47988 1.11875,0 1.492,1.44264 0.68643,2.6531 -0.23945,0.3598 -1.03905,1.27927 -1.7769,2.04325 -1.34037,1.38786 -1.76794,1.54767 -3.21169,1.2004 z m 7.97404,-12.01064 c 0.25488,-2.30366 0.18365,-2.21837 1.87177,-2.2412 1.18331,-0.016 1.92117,-0.2194 3.2471,-0.8951 1.73128,-0.882251 5.15104,-3.900362 5.43571,-4.797275 0.0835,-0.262997 -0.0511,-0.87043 -0.29899,-1.349851 -0.28847,-0.557836 -0.49685,-1.752781 -0.57877,-3.318908 l -0.12801,-2.447233 2.45224,-2.440592 c 2.49516,-2.483308 4.49887,-4.910508 4.49887,-5.449716 0,-0.16411 0.16283,-0.235896 0.36186,-0.159523 0.22721,0.08719 0.42817,0.786132 0.54007,1.878346 0.18023,1.759086 0.77489,4.876352 1.08335,5.679002 0.12424,0.323297 -0.22111,0.694951 -1.32926,1.4305 -1.92742,1.279351 -2.73954,2.518915 -3.04796,4.652219 -0.13379,0.925425 -0.24565,1.75674 -0.24858,1.847366 -0.003,0.09063 -0.62283,0.22411 -1.37756,0.29663 -1.82625,0.17548 -2.33192,0.788824 -2.33192,2.828456 0,1.472499 -0.037,1.549329 -1.43561,2.981849 -1.74486,1.78715 -3.05605,2.30085 -6.41562,2.51352 l -2.42728,0.15366 z m -17.63134,-2.74966 c -0.27782,-0.33476 -0.22595,-0.39687 0.33141,-0.39687 0.36343,0 1.06262,-0.0616 1.55375,-0.13682 l 0.89297,-0.13683 -1.05833,0.51408 c -1.31524,0.63886 -1.31913,0.63922 -1.7198,0.15644 z m -4.61406,-5.624589 c -2.84077,-4.335659 -4.54462,-8.517164 -5.74004,-14.086866 -0.50469,-2.351457 -0.59856,-3.611144 -0.61119,-8.202084 -0.0155,-5.64635 0.11916,-6.857209 1.34566,-12.098166 0.78505,-3.354605 0.75943,-3.329117 3.35048,-3.333352 2.18652,-0.0036 2.64784,0.510846 2.74073,3.056209 l 0.0702,1.924267 1.42361,1.339504 c 2.47581,2.32955 4.0174,2.717666 6.40021,1.611338 l 1.32292,-0.614224 1.02162,0.816066 1.02162,0.816066 3.14506,-0.06665 c 2.8991,-0.06144 3.18889,-0.02282 3.70545,0.493738 0.77634,0.776342 0.58363,1.871353 -0.94868,5.390424 -2.00182,4.597338 -2.15217,7.14319 -0.51835,8.777012 1.07734,1.077344 0.8164,1.611573 -1.07672,2.204369 -1.42252,0.445435 -3.48409,2.018531 -5.19996,3.967862 -1.38208,1.570115 -1.43405,1.600209 -2.49023,1.441825 -2.38157,-0.357138 -4.11431,0.688498 -6.22529,3.756702 -0.94709,1.376557 -1.34459,3.503556 -0.78153,4.181998 0.21837,0.26312 0.23754,0.529969 0.0608,0.845838 -0.21597,0.385933 -0.54596,0.02232 -2.01637,-2.221876 z m 31.02882,-49.934338 c -2.21897,-1.872085 -2.57045,-2.523529 -2.72065,-5.042498 -0.11327,-1.899617 -0.54198,-2.344672 -2.83734,-2.94547 -1.54614,-0.404691 -2.04021,-0.422235 -3.98249,-0.14141 -4.13798,0.59829 -5.69889,0.337551 -6.64765,-1.110446 -0.43094,-0.657689 -0.42405,-0.670919 0.68831,-1.321491 4.70712,-2.753002 12.68161,-5.727013 18.45382,-6.882175 5.09434,-1.019506 8.69264,-1.300072 14.64981,-1.142274 8.0843,0.214143 14.88658,1.586135 21.7231,4.381454 l 2.37617,0.971571 0.31164,1.40337 c 0.34489,1.553095 0.13044,2.80093 -0.64619,3.76002 -0.52758,0.651541 -2.07893,1.02551 -4.32586,1.042796 -1.76415,0.01357 -4.31068,0.750789 -5.55555,1.608325 -0.48629,0.334985 -1.47948,1.215387 -2.20708,1.95645 -1.22079,1.243367 -1.52718,1.403808 -3.96875,2.078224 -4.1426,1.144278 -4.44795,1.161851 -6.05548,0.348514 -1.05731,-0.534949 -1.95623,-0.747327 -3.67722,-0.868779 -2.97143,-0.209697 -4.32424,0.170258 -6.01339,1.688949 -1.09346,0.983117 -1.38075,1.123196 -1.82071,0.887741 -0.85505,-0.457613 -2.43922,-0.309156 -4.12904,0.386946 -0.87312,0.359674 -1.5875,0.653313 -1.5875,0.65253 0,-7.83e-4 -0.91257,-0.771339 -2.02795,-1.712347 z"
         id="path5" />
      <path
         style="fill:#205f9e"
         d="m -198.7021,156.96691 c -15.85287,-1.30815 -30.08588,-7.95945 -41.4143,-19.35352 -4.37691,-4.40227 -7.16023,-7.94064 -9.95927,-12.66097 -4.42664,-7.46514 -7.23803,-15.23076 -8.59797,-23.74929 -0.69136,-4.330596 -0.69366,-15.795582 -0.004,-19.976047 2.42333,-14.689492 9.19324,-27.690878 19.5962,-37.633801 15.86189,-15.160454 37.84108,-21.421227 59.56164,-16.966138 7.03815,1.44359 15.69049,5.056736 22.05618,9.210477 2.71506,1.771638 2.95997,1.995369 2.52911,2.310421 -0.70451,0.515155 -1.0389,0.440535 -2.42582,-0.54133 -4.67846,-3.312098 -12.01009,-6.765997 -17.92613,-8.444918 -6.66796,-1.892307 -10.84221,-2.442303 -18.38855,-2.422861 -5.21499,0.01344 -6.79115,0.113648 -9.77352,0.621401 -13.26639,2.258617 -24.97674,8.095628 -34.44628,17.169715 -11.19412,10.726646 -17.91656,24.248199 -19.70862,39.642065 -0.55875,4.799659 -0.37832,12.611374 0.39643,17.163306 3.27814,19.26018 14.42179,35.56388 31.04154,45.41528 6.95515,4.12268 14.03065,6.7198 22.30399,8.18686 4.50484,0.79881 13.5386,0.99289 18.12396,0.38938 11.84417,-1.55892 21.96484,-5.6645 31.3726,-12.72672 5.13966,-3.85824 10.51296,-9.38523 13.71603,-14.10834 1.22483,-1.80608 4.26472,-5.01111 4.51527,-4.76056 0.20046,0.20046 -2.4932,4.43044 -4.60882,7.23743 -10.7031,14.20087 -27.08012,23.62485 -44.8306,25.79729 -2.98417,0.36522 -9.86209,0.47045 -13.12906,0.20087 z m 53.84271,-49.97183 c -3.44447,-0.49673 -7.71421,-2.16623 -10.6651,-4.17014 -4.99589,-3.392646 -8.56514,-8.609661 -10.30415,-15.061111 -0.63393,-2.351792 -0.69362,-3.013509 -0.70896,-7.859663 -0.0133,-4.18961 0.0837,-5.748804 0.46574,-7.486668 2.36527,-10.760296 8.53584,-17.47906 18.30205,-19.928012 3.04261,-0.762958 9.26176,-0.963304 12.47502,-0.401876 5.1335,0.896939 9.56859,3.085542 13.11624,6.472526 2.28655,2.183006 3.59701,3.939093 4.96967,6.659655 0.87691,1.738002 2.04811,4.868979 2.27636,6.085417 0.0683,0.363802 0.18398,0.860306 0.25714,1.103343 0.86256,2.865275 0.99018,9.695337 0.24635,13.184157 -0.0776,0.363802 -0.20442,1.018646 -0.2819,1.455209 -0.49447,2.786146 -2.46897,7.213793 -4.48661,10.060842 -5.23454,7.386371 -15.52,11.348881 -25.66185,9.886321 z m 10.53778,-8.537506 c 4.89466,-1.664041 8.15452,-5.162986 9.92487,-10.652795 1.75832,-5.452524 1.37426,-14.255349 -0.82375,-18.880822 -2.16271,-4.551178 -6.04216,-7.731529 -10.79869,-8.852715 -2.13873,-0.50413 -6.44276,-0.514084 -8.77293,-0.02029 -4.46687,0.946592 -8.25542,3.945587 -10.24694,8.111411 -1.86714,3.905665 -2.21203,5.69688 -2.23538,11.60951 -0.0183,4.624032 0.0423,5.375764 0.58371,7.244823 1.22814,4.239838 3.21645,7.307701 6.04378,9.32524 3.1547,2.251147 6.12837,3.041651 10.94693,2.910068 2.7283,-0.0745 3.66987,-0.213581 5.3784,-0.794432 z m 103.189688,8.497536 c -0.613309,-0.12128 -1.347838,-0.51436 -1.738725,-0.93047 -0.44089,-0.46934 -1.720412,-3.46558 -3.670759,-8.595792 l -2.993954,-7.87532 -7.519207,0.07011 -7.519206,0.07011 -2.963911,8.067895 c -3.360212,9.146647 -3.180078,8.883007 -6.263708,9.167347 -3.060592,0.28221 -5.265513,-0.87529 -4.503976,-2.36442 0.164068,-0.32083 3.92867,-9.748357 8.365781,-20.950067 4.437112,-11.20171 8.287396,-20.667179 8.556188,-21.034376 0.796076,-1.087521 2.095578,-1.592802 4.097615,-1.593261 1.989952,-4.56e-4 3.211307,0.406778 4.062509,1.354553 0.310903,0.346176 2.470171,5.153786 4.798373,10.683578 2.328202,5.529792 6.342851,15.05137 8.921442,21.159062 3.390516,8.030831 4.620656,11.216861 4.443813,11.509381 -0.663839,1.09804 -3.704768,1.72987 -6.072275,1.26167 z M -42.221387,82.979775 c 0.138205,-0.223619 -4.434608,-11.070695 -4.839091,-11.478711 -0.168233,-0.169701 -4.797867,10.940977 -4.797867,11.514422 0,0.279148 9.464039,0.244078 9.636958,-0.03571 z M 41.93645,107.08773 c -8.719023,-0.56446 -15.257835,-5.20733 -16.568551,-11.764462 -0.260195,-1.301679 -0.24153,-1.607564 0.132973,-2.179128 0.776166,-1.184578 1.708891,-1.598307 3.603286,-1.598307 2.325444,0 2.999946,0.45304 3.56418,2.393936 0.816052,2.807121 3.221636,4.6133 7.628527,5.727709 1.768676,0.447262 2.684359,0.521372 5.073873,0.410652 6.453532,-0.299042 9.864593,-3.228943 9.017311,-7.745346 -0.256884,-1.369306 -2.048934,-3.0798 -4.009578,-3.827102 -0.859569,-0.327625 -3.467854,-1.057257 -5.796187,-1.621403 -8.491759,-2.057519 -11.05677,-2.977426 -13.688249,-4.90911 -6.259735,-4.595068 -5.865802,-14.245514 0.765953,-18.764052 3.351133,-2.28329 7.112443,-3.158628 12.64448,-2.942642 4.166969,0.162689 6.610549,0.721374 9.271767,2.119839 2.046748,1.075563 4.60615,3.621073 5.5072,5.47731 0.944827,1.94642 1.414099,4.305652 1.025901,5.157653 -0.443717,0.973853 -2.13782,1.712304 -4.026178,1.75499 -2.070976,0.04681 -2.816661,-0.468066 -3.47258,-2.397747 -0.62454,-1.837368 -1.542441,-3.012529 -3.03731,-3.888581 -3.364129,-1.971511 -10.190766,-1.877338 -13.443447,0.18545 -2.461573,1.561084 -2.99477,4.805374 -1.121059,6.821196 1.028053,1.106024 3.024335,1.891158 7.534348,2.963241 10.942712,2.601213 13.319172,3.552259 16.275133,6.513213 6.815268,6.826781 2.517568,18.688091 -7.753667,21.399501 -1.663544,0.43915 -6.964154,0.85329 -9.128126,0.71319 z m -55.827085,-0.36929 c -1.225309,-0.6702 -1.190625,-0.088 -1.190625,-19.985677 V 67.865624 h -5.833467 -5.833467 l -0.619896,-0.668878 c -1.137771,-1.227675 -1.110933,-4.571786 0.04597,-5.728694 0.476118,-0.476117 1.171269,-0.497107 16.089119,-0.485812 18.3143895,0.01387 16.5986053,-0.324608 16.7496448,3.30423 0.087248,2.096188 0.052941,2.266942 -0.583286,2.903168 L 4.257377,67.865624 h -5.8328601 -5.83286 v 18.802812 c 0,11.758923 -0.097026,18.984104 -0.2589983,19.286754 -0.1424491,0.26617 -0.636466,0.61553 -1.0978154,0.77636 -1.0723625,0.37382 -4.4337612,0.36523 -5.1254782,-0.0131 z m 26.678644,0.12166 c -0.315393,-0.0615 -0.88094,-0.39678 -1.256771,-0.74509 l -0.68333,-0.63328 V 83.935051 62.408376 l 0.747521,-0.71617 c 1.263415,-1.210429 3.478814,-1.576591 5.196529,-0.858884 1.809981,0.756259 1.728867,-0.328623 1.728867,23.123066 0,20.900222 -0.0062,21.152062 -0.541202,21.832152 -0.808684,1.02807 -3.01737,1.47544 -5.191614,1.05156 z m -120.408769,-23.080442 0.0676,-22.793759 10.26814,0.0077 c 10.762524,0.0081 12.58695,0.147295 15.589124,1.189774 2.405876,0.83542 4.006884,1.810246 5.858395,3.567077 3.810989,3.616106 5.670662,7.977289 6.289692,14.750173 0.305544,3.342999 -0.0039,7.949255 -0.725473,10.800644 -2.018623,7.976356 -6.870683,12.790453 -14.673181,14.558363 -1.597603,0.36199 -3.929127,0.47144 -12.355566,0.58 l -10.386371,0.13381 z m 18.19158,15.597027 c 4.703517,-0.459 7.311059,-1.673384 9.179544,-4.275097 1.040465,-1.448762 2.140254,-4.323889 2.364572,-6.181588 0.08786,-0.727604 0.212285,-1.412176 0.276502,-1.521271 0.168703,-0.286596 0.123652,-7.591534 -0.05262,-8.532896 -1.232472,-6.581763 -4.218169,-9.936005 -9.527245,-10.703256 -1.014131,-0.146559 -4.314422,-0.268829 -7.333979,-0.271712 l -5.490104,-0.0052 v 15.698612 c 0,8.634236 0.07937,15.777987 0.176389,15.875 0.259282,0.259283 7.491972,0.201911 10.406944,-0.08255 z M 12.29184,55.731058 c -1.486377,-0.906421 -2.763898,-2.941051 -2.763898,-4.401893 0,-0.850969 0.667936,-2.391956 1.396411,-3.221643 3.646514,-4.15315 10.3779,0.04073 8.247839,5.138687 -0.525145,1.25685 -1.081957,1.857892 -2.294473,2.476736 -1.293114,0.659979 -3.510498,0.663902 -4.585879,0.0081 z"
         id="path4" />
      <path
         style="fill:#3ea030"
         d="m -199.14431,155.41808 c -6.50631,-0.58036 -13.99222,-2.50191 -19.7143,-5.06046 -1.54789,-0.69212 -1.76646,-0.86581 -1.36096,-1.08154 0.2657,-0.14135 1.18819,-0.73158 2.04998,-1.31164 1.45127,-0.97682 1.69295,-1.0519 3.27552,-1.01758 1.22606,0.0266 2.54829,0.32735 4.68152,1.06489 1.63509,0.56532 3.53659,1.1043 4.22557,1.19774 1.64319,0.22284 3.73266,-0.38895 5.22881,-1.53098 1.02803,-0.78471 1.39583,-0.89867 3.39053,-1.05047 1.23058,-0.0936 3.74319,-0.48201 5.58359,-0.86304 l 3.34618,-0.69276 0.91882,1.00261 0.91882,1.00261 -2.92612,2.06338 c -1.62502,1.14591 -3.33008,2.13917 -3.83462,2.23382 -0.86036,0.16141 -3.19382,0.0382 -6.37204,-0.33635 -1.04733,-0.12344 -1.37743,-0.0868 -1.23882,0.13747 0.64859,1.04943 6.00341,2.56183 8.25923,2.33271 1.87424,-0.19037 2.60938,-0.63144 5.40951,-3.24562 1.96109,-1.83086 2.54088,-2.23659 2.99127,-2.09326 0.96123,0.30591 3.54099,0.46416 4.53295,0.27806 0.60998,-0.11443 1.31466,-0.55424 1.97001,-1.22954 0.92286,-0.95094 1.18054,-1.06614 2.6974,-1.206 2.19683,-0.20256 3.6974,0.22376 4.85216,1.37852 0.76766,0.76766 1.98428,2.68281 1.98428,3.12357 0,0.22397 -4.35544,1.79254 -7.51002,2.70467 -7.30871,2.11327 -15.58601,2.89255 -23.35927,2.19919 z m 2.98955,-11.60787 c 0.16411,-0.17318 0.72965,-0.41215 1.25677,-0.53104 1.64238,-0.37041 1.0286,0.075 -0.89369,0.64857 -0.50661,0.15116 -0.59161,0.12365 -0.36308,-0.11753 z m 45.12433,-7.1724 c -0.73899,-0.91331 -1.28151,-1.76106 -1.20559,-1.8839 0.27649,-0.44736 2.66392,-1.48615 4.68402,-2.03804 2.2844,-0.6241 3.94092,-1.37743 4.92564,-2.24 1.29071,-1.13059 -2.66344,3.46249 -4.83209,5.6129 l -2.22835,2.2096 z m -3.461,-5.13588 c -0.45045,-0.79816 -0.819,-1.50066 -0.819,-1.56111 0,-0.0605 0.58655,-0.25063 1.30345,-0.42261 0.7169,-0.17198 1.7587,-0.61513 2.31511,-0.98478 0.84878,-0.56388 3.41317,-3.26002 4.64593,-4.88462 0.27837,-0.36685 0.55633,-0.40278 1.65738,-0.21421 0.72761,0.12461 2.06706,0.23366 2.97657,0.24234 1.93495,0.0185 2.02831,0.21291 0.86993,1.812 -1.10574,1.52644 -3.17026,2.99939 -6.12051,4.36672 -1.39622,0.6471 -3.21424,1.60875 -4.04003,2.13701 -0.82579,0.52825 -1.60683,0.96046 -1.73563,0.96046 -0.1288,0 -0.60274,-0.65304 -1.0532,-1.4512 z m -92.46126,-9.9941 c -4.85128,-6.79846 -8.11369,-14.72569 -9.60852,-23.347413 -0.64806,-3.737851 -0.64806,-13.989233 0,-17.727084 1.18613,-6.841238 3.2301,-12.651194 6.48819,-18.442518 1.43093,-2.543526 1.45951,-2.573468 3.05819,-3.204319 1.70196,-0.671605 3.41007,-1.133874 2.89928,-0.784639 -0.32023,0.218949 -1.40259,4.433406 -1.98962,7.7471 -0.22031,1.243622 -0.34647,4.009101 -0.33796,7.408334 0.0115,4.594431 0.10476,5.848838 0.60984,8.202084 1.21552,5.663352 3.02938,10.053144 5.95367,14.408709 0.98563,1.468028 1.70454,2.802622 1.62349,3.013844 -0.24304,0.633335 0.57057,1.551722 1.53495,1.732642 0.49762,0.0934 1.10067,0.38621 1.3401,0.65078 0.40486,0.44736 0.402,0.51122 -0.0408,0.91193 -0.26186,0.23698 -1.27578,2.07201 -2.25315,4.07784 -1.69485,3.4783 -1.98638,4.37417 -3.20156,9.83816 -0.23949,1.07683 -0.73809,2.56511 -1.10802,3.3073 -0.70483,1.41411 -2.8978,3.86296 -3.45931,3.86296 -0.18002,0 -0.85898,-0.74507 -1.5088,-1.65571 z m 24.04121,-6.54637 c 0.56839,-0.58208 1.09297,-1.05833 1.16573,-1.05833 0.0728,0 -0.33275,0.47625 -0.90114,1.05833 -0.56839,0.58208 -1.09297,1.05833 -1.16573,1.05833 -0.0728,0 0.33275,-0.47625 0.90114,-1.05833 z m 8.81394,-10.23491 c 0.19099,-0.0764 0.4192,-0.067 0.50711,0.0209 0.0879,0.0879 -0.0684,0.15045 -0.34726,0.13896 -0.30823,-0.0127 -0.37092,-0.0754 -0.15985,-0.15985 z m 5.07669,-2.56499 c 0,-0.0549 0.20836,-0.2633 0.46302,-0.46302 0.41964,-0.3291 0.429,-0.31975 0.0999,0.0999 -0.34564,0.44073 -0.56291,0.58089 -0.56291,0.36312 z m -7.73906,-0.61599 c 0.32742,-0.0631 0.8632,-0.0631 1.19062,0 0.32742,0.0631 0.0595,0.11466 -0.59531,0.11466 -0.65484,0 -0.92274,-0.0516 -0.59531,-0.11466 z m 6.28385,-2.459111 c 0.26339,-0.291042 0.53842,-0.529167 0.61118,-0.529167 0.0728,0 -0.0832,0.238125 -0.3466,0.529167 -0.26338,0.291041 -0.53842,0.529166 -0.61118,0.529166 -0.0728,0 0.0832,-0.238125 0.3466,-0.529166 z m 2.8199,-0.79375 c 0,-0.363802 0.0601,-0.512631 0.13345,-0.33073 0.0734,0.181902 0.0734,0.479558 0,0.661459 -0.0734,0.181901 -0.13345,0.03307 -0.13345,-0.330729 z m 0.22281,-0.893645 c 0,-0.05494 0.20836,-0.263302 0.46302,-0.463021 0.41964,-0.329108 0.429,-0.319749 0.0999,0.0999 -0.34564,0.440729 -0.56291,0.580887 -0.56291,0.363126 z m 1.53789,-0.874596 c 0.191,-0.07643 0.4192,-0.06703 0.50712,0.02089 0.0879,0.08792 -0.0684,0.150453 -0.34727,0.138964 -0.30822,-0.01269 -0.37092,-0.07539 -0.15985,-0.159852 z m 1.92258,-0.76735 c 0.0127,-0.308224 0.0754,-0.370919 0.15985,-0.159852 0.0764,0.190996 0.067,0.419199 -0.0209,0.507118 -0.0879,0.08792 -0.15046,-0.06835 -0.13897,-0.347266 z m -3.43958,-0.264583 c 0.0127,-0.308225 0.0754,-0.370919 0.15985,-0.159853 0.0764,0.190997 0.067,0.4192 -0.0209,0.507119 -0.0879,0.08792 -0.15045,-0.06835 -0.13896,-0.347266 z m -0.79375,-2.38125 c 0.0127,-0.308225 0.0754,-0.370919 0.15985,-0.159853 0.0764,0.190997 0.067,0.4192 -0.0209,0.507118 -0.0879,0.08792 -0.15045,-0.06835 -0.13896,-0.347265 z m -0.20079,-2.756077 c 0,-0.945885 0.048,-1.332838 0.10671,-0.859896 0.0587,0.472943 0.0587,1.246849 0,1.719792 -0.0587,0.472943 -0.10671,0.08599 -0.10671,-0.859896 z m 6.13302,0.529167 c 0.26339,-0.291042 0.53842,-0.529167 0.61119,-0.529167 0.0728,0 -0.0832,0.238125 -0.3466,0.529167 -0.26339,0.291042 -0.53842,0.529167 -0.61118,0.529167 -0.0728,0 0.0832,-0.238125 0.34659,-0.529167 z m -33.20521,-0.661458 c 0.34178,-0.363802 0.68094,-0.661459 0.7537,-0.661459 0.0728,0 -0.14734,0.297657 -0.48911,0.661459 -0.34178,0.363802 -0.68094,0.661458 -0.7537,0.661458 -0.0728,0 0.14734,-0.297656 0.48911,-0.661458 z m 3.11194,-1.377755 c 0.32912,-0.06329 0.80537,-0.06088 1.05834,0.0053 0.25296,0.06622 -0.0163,0.118003 -0.5984,0.115066 -0.58208,-0.0029 -0.78905,-0.05712 -0.45994,-0.120406 z m 4.95786,-2.723287 c 0.56839,-0.582084 1.09296,-1.058334 1.16572,-1.058334 0.0728,0 -0.33275,0.47625 -0.90114,1.058334 -0.56839,0.582083 -1.09297,1.058333 -1.16573,1.058333 -0.0728,0 0.33276,-0.47625 0.90115,-1.058333 z m 21.56354,0.132292 c 0.34177,-0.363803 0.68094,-0.661459 0.7537,-0.661459 0.0728,0 -0.14734,0.297656 -0.48912,0.661459 -0.34177,0.363802 -0.68094,0.661458 -0.7537,0.661458 -0.0728,0 0.14734,-0.297656 0.48912,-0.661458 z m 2.38125,-2.645834 c 0.34177,-0.363802 0.68094,-0.661458 0.7537,-0.661458 0.0728,0 -0.14734,0.297656 -0.48912,0.661458 -0.34177,0.363802 -0.68094,0.661458 -0.7537,0.661458 -0.0728,0 0.14735,-0.297656 0.48912,-0.661458 z m 2.9313,-1.080382 c 0.0127,-0.308224 0.0754,-0.370919 0.15986,-0.159852 0.0764,0.190996 0.067,0.419199 -0.0209,0.507118 -0.0879,0.08792 -0.15045,-0.06835 -0.13897,-0.347266 z m -22.01505,-1.367014 c -0.32911,-0.419644 -0.31975,-0.429002 0.0999,-0.0999 0.25467,0.19972 0.46303,0.408079 0.46303,0.463021 0,0.217761 -0.21728,0.0776 -0.56292,-0.363126 z m -0.95786,-3.108854 c 0.003,-0.582084 0.0571,-0.789055 0.1204,-0.459936 0.0633,0.329118 0.0609,0.805368 -0.005,1.058333 -0.0662,0.252965 -0.11801,-0.01631 -0.11507,-0.598397 z m -2.90736,-11.434652 c 0.40219,-0.06082 0.9975,-0.05919 1.32292,0.0036 0.32542,0.0628 -0.004,0.112561 -0.73124,0.110574 -0.72761,-0.002 -0.99386,-0.05337 -0.59168,-0.114185 z m -2.87305,-1.199203 -0.50402,-0.595312 0.59531,0.504028 c 0.55945,0.473662 0.71576,0.686597 0.50403,0.686597 -0.0502,0 -0.3181,-0.267891 -0.59532,-0.595313 z m -9.87584,-4.850694 c 0.0127,-0.308225 0.0754,-0.37092 0.15985,-0.159853 0.0764,0.190996 0.067,0.419199 -0.0209,0.507118 -0.0879,0.08792 -0.15045,-0.06835 -0.13896,-0.347265 z m -4.05579,-2.931305 c 0.1819,-0.0734 0.47956,-0.0734 0.66146,0 0.1819,0.0734 0.0331,0.133452 -0.33073,0.133452 -0.3638,0 -0.51263,-0.06005 -0.33073,-0.133452 z m 2.13321,-0.0055 c 0.19099,-0.07643 0.41919,-0.06703 0.50711,0.02089 0.0879,0.08792 -0.0683,0.150452 -0.34726,0.138964 -0.30823,-0.0127 -0.37092,-0.07539 -0.15985,-0.159853 z m 31.76586,-12.18853 c -0.32911,-0.419644 -0.31975,-0.429003 0.0999,-0.09989 0.44073,0.345644 0.58089,0.562916 0.36313,0.562916 -0.0549,0 -0.2633,-0.20836 -0.46302,-0.463021 z m -1.5875,-1.322917 c -0.32911,-0.419644 -0.31975,-0.429002 0.0999,-0.0999 0.25466,0.199719 0.46302,0.408079 0.46302,0.463021 0,0.217761 -0.21727,0.0776 -0.56291,-0.363126 z m 14.51968,-0.505958 c 0.1819,-0.0734 0.47956,-0.0734 0.66146,0 0.1819,0.0734 0.0331,0.133452 -0.33073,0.133452 -0.3638,0 -0.51263,-0.06005 -0.33073,-0.133452 z m 2.51355,-0.0072 c 0.25466,-0.06655 0.67138,-0.06655 0.92604,0 0.25466,0.06655 0.0463,0.121 -0.46302,0.121 -0.50933,0 -0.71769,-0.05445 -0.46302,-0.121 z m 14.75052,-2.331158 c 0.34177,-0.363802 0.68094,-0.661458 0.7537,-0.661458 0.0728,0 -0.14735,0.297656 -0.48912,0.661458 -0.34177,0.363802 -0.68094,0.661458 -0.7537,0.661458 -0.0728,0 0.14734,-0.297656 0.48912,-0.661458 z m -32.78745,-0.02205 c 0.0127,-0.308224 0.0754,-0.370919 0.15985,-0.159852 0.0764,0.190996 0.067,0.419199 -0.0209,0.507118 -0.0879,0.08792 -0.15045,-0.06835 -0.13896,-0.347266 z m 38.27755,-2.666721 c 0.1819,-0.0734 0.47956,-0.0734 0.66146,0 0.1819,0.0734 0.0331,0.133452 -0.33073,0.133452 -0.3638,0 -0.51263,-0.06005 -0.33073,-0.133452 z m 3.7207,-0.270096 c 0.191,-0.07643 0.4192,-0.06703 0.50712,0.02089 0.0879,0.08792 -0.0684,0.150452 -0.34726,0.138964 -0.30823,-0.0127 -0.37092,-0.07539 -0.15986,-0.159853 z m -52.66862,-0.535151 c 0.32742,-0.06306 0.86321,-0.06306 1.19063,0 0.32742,0.06306 0.0595,0.114662 -0.59531,0.114662 -0.65485,0 -0.92274,-0.0516 -0.59532,-0.114662 z m 5.03182,-0.534193 c 0.47555,-0.05889 1.18993,-0.05767 1.5875,0.0027 0.39758,0.06037 0.008,0.10855 -0.86463,0.107065 -0.87312,-0.0015 -1.19841,-0.05088 -0.72287,-0.109765 z m 50.61772,-2.873006 c 0.0127,-0.308224 0.0754,-0.370919 0.15985,-0.159852 0.0764,0.190996 0.067,0.419199 -0.0209,0.507118 -0.0879,0.08792 -0.15045,-0.06835 -0.13896,-0.347266 z m -16.47467,-6.905567 c 0.191,-0.07643 0.4192,-0.06703 0.50712,0.02089 0.0879,0.08792 -0.0683,0.150453 -0.34726,0.138965 -0.30823,-0.0127 -0.37092,-0.07539 -0.15986,-0.159853 z m -1.85208,-0.264583 c 0.191,-0.07643 0.4192,-0.06703 0.50712,0.02089 0.0879,0.08792 -0.0683,0.150453 -0.34727,0.138964 -0.30822,-0.0127 -0.37092,-0.07539 -0.15985,-0.159852 z m -14.02292,-0.264583 c 0.191,-0.07643 0.4192,-0.06703 0.50712,0.02089 0.0879,0.08792 -0.0683,0.150452 -0.34726,0.138964 -0.30823,-0.0127 -0.37092,-0.07539 -0.15986,-0.159852 z m 11.36055,0.0055 c 0.1819,-0.0734 0.47956,-0.0734 0.66146,0 0.1819,0.0734 0.0331,0.133452 -0.33073,0.133452 -0.3638,0 -0.51263,-0.06005 -0.33073,-0.133452 z m -6.48229,-0.282096 c 0.5457,-0.05708 1.43867,-0.05708 1.98437,0 0.54571,0.05708 0.0992,0.103786 -0.99218,0.103786 -1.09141,0 -1.53789,-0.0467 -0.99219,-0.103786 z"
         id="path3" />
      <path
         style="fill:#069352"
         d="m -198.23599,155.52016 c 0.32911,-0.0633 0.80536,-0.0609 1.05833,0.005 0.25296,0.0662 -0.0163,0.11801 -0.5984,0.11507 -0.58208,-0.003 -0.78905,-0.0571 -0.45993,-0.12041 z m 8.99583,0 c 0.32912,-0.0633 0.80537,-0.0609 1.05833,0.005 0.25297,0.0662 -0.0163,0.11801 -0.5984,0.11507 -0.58208,-0.003 -0.78905,-0.0571 -0.45993,-0.12041 z m -11.90934,-0.25268 c 0.1819,-0.0734 0.47956,-0.0734 0.66146,0 0.1819,0.0734 0.0331,0.13345 -0.33073,0.13345 -0.3638,0 -0.51263,-0.06 -0.33073,-0.13345 z m 14.81667,0 c 0.1819,-0.0734 0.47956,-0.0734 0.66146,0 0.1819,0.0734 0.0331,0.13345 -0.33073,0.13345 -0.3638,0 -0.51263,-0.06 -0.33073,-0.13345 z m -16.65221,-0.27009 c 0.19099,-0.0764 0.4192,-0.067 0.50711,0.0209 0.0879,0.0879 -0.0684,0.15045 -0.34726,0.13896 -0.30823,-0.0127 -0.37092,-0.0754 -0.15985,-0.15985 z m -1.5875,-0.26459 c 0.19099,-0.0764 0.4192,-0.067 0.50711,0.0209 0.0879,0.0879 -0.0684,0.15045 -0.34726,0.13897 -0.30823,-0.0127 -0.37092,-0.0754 -0.15985,-0.15986 z m -1.47175,-7.94627 c 0.40018,-0.0606 1.05503,-0.0606 1.45521,0 0.40018,0.0606 0.0728,0.11023 -0.7276,0.11023 -0.80037,0 -1.12779,-0.0496 -0.72761,-0.11023 z m 37.20636,-0.80267 c -0.32911,-0.41965 -0.31975,-0.42901 0.0999,-0.0999 0.44073,0.34565 0.58089,0.56292 0.36313,0.56292 -0.0549,0 -0.2633,-0.20836 -0.46302,-0.46302 z m -49.9725,-0.16604 c 0,-0.055 0.20835,-0.26331 0.46302,-0.46303 0.41964,-0.3291 0.429,-0.31974 0.0999,0.0999 -0.34564,0.44073 -0.56291,0.58089 -0.56291,0.36313 z m 34.01597,-0.35172 c -0.14359,-0.37708 -0.1132,-0.40747 0.14811,-0.14811 0.18082,0.17947 0.26211,0.39297 0.18065,0.47443 -0.0815,0.0815 -0.2294,-0.0654 -0.32876,-0.32632 z m -28.79045,-0.78195 c 0.1819,-0.0734 0.47955,-0.0734 0.66145,0 0.18191,0.0734 0.0331,0.13345 -0.33072,0.13345 -0.36381,0 -0.51263,-0.06 -0.33073,-0.13345 z m -2.50851,-0.27271 c 0.25743,-0.0671 0.61462,-0.0627 0.79375,0.01 0.17913,0.0725 -0.0315,0.12737 -0.46806,0.12197 -0.43656,-0.005 -0.58312,-0.0647 -0.32569,-0.13177 z m 16.86215,-1.00727 c 0.49366,-0.50932 0.95709,-0.92604 1.02985,-0.92604 0.0728,0 -0.27161,0.41672 -0.76526,0.92604 -0.49366,0.50932 -0.95709,0.92604 -1.02985,0.92604 -0.0728,0 0.27161,-0.41672 0.76526,-0.92604 z m 8.41706,-2.16512 c 0.191,-0.0764 0.4192,-0.067 0.50712,0.0209 0.0879,0.0879 -0.0684,0.15045 -0.34727,0.13897 -0.30822,-0.0127 -0.37092,-0.0754 -0.15985,-0.15986 z m -1.5875,-0.26458 c 0.191,-0.0764 0.4192,-0.067 0.50712,0.0209 0.0879,0.0879 -0.0684,0.15045 -0.34727,0.13896 -0.30822,-0.0127 -0.37092,-0.0754 -0.15985,-0.15985 z m -1.99588,-0.2672 c 0.25744,-0.0671 0.61462,-0.0627 0.79375,0.01 0.17914,0.0725 -0.0315,0.12736 -0.46805,0.12197 -0.43656,-0.005 -0.58313,-0.0647 -0.3257,-0.13178 z m 42.06716,-2.13175 c -0.97284,-1.17785 -1.80322,-2.39738 -1.21606,-1.78593 0.64378,0.67039 2.50436,3.0427 2.38637,3.0427 -0.0728,0 -0.5994,-0.56554 -1.17031,-1.25677 z m 4.56062,-1.91823 c 1.44975,-1.4552 2.69544,-2.64583 2.7682,-2.64583 0.0728,0 -1.05387,1.19063 -2.50361,2.64583 -1.44975,1.45521 -2.69544,2.64584 -2.7682,2.64584 -0.0728,0 1.05387,-1.19063 2.50361,-2.64584 z m -7.80521,-2.38125 c -0.15576,-0.29104 -0.22367,-0.52916 -0.15091,-0.52916 0.0728,0 0.25974,0.23812 0.4155,0.52916 0.15576,0.29105 0.22367,0.52917 0.15091,0.52917 -0.0728,0 -0.25973,-0.23812 -0.4155,-0.52917 z m -1.09119,-1.91823 c -0.31503,-0.61846 -0.74673,-1.42213 -0.95933,-1.78593 -0.37084,-0.63459 -0.36843,-0.63996 0.0593,-0.1323 0.51826,0.61505 1.79814,3.04271 1.60414,3.04271 -0.0722,0 -0.38912,-0.50601 -0.70415,-1.12448 z m 12.46828,0.46303 c 0.34177,-0.36381 0.68094,-0.66146 0.7537,-0.66146 0.0728,0 -0.14734,0.29765 -0.48912,0.66146 -0.34177,0.3638 -0.68094,0.66145 -0.7537,0.66145 -0.0728,0 0.14734,-0.29765 0.48912,-0.66145 z m 1.19062,-1.45521 c 0.26339,-0.29105 0.53842,-0.52917 0.61118,-0.52917 0.0728,0 -0.0832,0.23812 -0.34659,0.52917 -0.26339,0.29104 -0.53842,0.52916 -0.61118,0.52916 -0.0728,0 0.0832,-0.23812 0.34659,-0.52916 z m -101.50146,-0.72761 c -0.32911,-0.41964 -0.31975,-0.429 0.0999,-0.0999 0.25466,0.19972 0.46302,0.40808 0.46302,0.46302 0,0.21776 -0.21727,0.0776 -0.56292,-0.36313 z m 3.60563,-1.12448 c 0.56839,-0.58208 1.09296,-1.05833 1.16572,-1.05833 0.0728,0 -0.33275,0.47625 -0.90114,1.05833 -0.56839,0.58209 -1.09297,1.05834 -1.16573,1.05834 -0.0728,0 0.33276,-0.47625 0.90115,-1.05834 z m 98.55729,0.95844 c 0,-0.0549 0.20836,-0.2633 0.46302,-0.46302 0.41965,-0.32911 0.429,-0.31975 0.0999,0.0999 -0.34565,0.44072 -0.56292,0.58088 -0.56292,0.36312 z m -102.95667,-0.89229 c -0.32911,-0.41964 -0.31975,-0.429 0.0999,-0.0999 0.25466,0.19972 0.46302,0.40808 0.46302,0.46303 0,0.21776 -0.21727,0.0776 -0.56292,-0.36313 z m -0.79375,-1.05833 c -0.32911,-0.41965 -0.31975,-0.42901 0.0999,-0.0999 0.25466,0.19972 0.46302,0.40808 0.46302,0.46302 0,0.21776 -0.21727,0.0776 -0.56292,-0.36312 z m -2.3475,-3.50573 c -0.15576,-0.29105 -0.22367,-0.52917 -0.15091,-0.52917 0.0728,0 0.25973,0.23812 0.41549,0.52917 0.15577,0.29104 0.22367,0.52916 0.15091,0.52916 -0.0728,0 -0.25973,-0.23812 -0.41549,-0.52916 z m -0.79375,-1.32292 c -0.15576,-0.29104 -0.22367,-0.52917 -0.15091,-0.52917 0.0728,0 0.25973,0.23813 0.41549,0.52917 0.15577,0.29104 0.22367,0.52917 0.15091,0.52917 -0.0728,0 -0.25973,-0.23813 -0.41549,-0.52917 z m -1.19062,-2.11667 c -0.22576,-0.43656 -0.35094,-0.79375 -0.27818,-0.79375 0.0728,0 0.317,0.35719 0.54276,0.79375 0.22575,0.43657 0.35093,0.79375 0.27817,0.79375 -0.0728,0 -0.317,-0.35718 -0.54275,-0.79375 z m 86.9574,-0.52916 c 0,-0.36381 0.0601,-0.51263 0.13345,-0.33073 0.0734,0.1819 0.0734,0.47955 0,0.66146 -0.0734,0.1819 -0.13345,0.0331 -0.13345,-0.33073 z m -73.31047,-0.15434 c 0.0127,-0.30823 0.0754,-0.37092 0.15985,-0.15986 0.0764,0.191 0.067,0.4192 -0.0209,0.50712 -0.0879,0.0879 -0.15045,-0.0684 -0.13896,-0.34726 z m 75.38536,-1.12057 c 0,-0.31976 0.50197,-0.69257 0.68546,-0.50908 0.0666,0.0666 -0.0604,0.27169 -0.28219,0.45576 -0.25146,0.20869 -0.40327,0.22876 -0.40327,0.0533 z m -64.72389,-3.08199 c -0.0819,-0.21348 -0.0876,-0.5409 -0.0126,-0.7276 0.075,-0.18671 0.14576,-0.0803 0.15725,0.23645 0.0115,0.31675 0.22924,0.63036 0.48391,0.69691 0.43394,0.1134 0.43341,0.12293 -0.008,0.15169 -0.25923,0.0169 -0.53835,-0.14397 -0.62027,-0.35745 z m 4.92806,-2.093 c 0,-0.0549 0.20835,-0.2633 0.46302,-0.46302 0.41964,-0.32911 0.429,-0.31975 0.0999,0.0999 -0.34564,0.44072 -0.56291,0.58088 -0.56291,0.36312 z m 8.41705,-7.48918 c 0.191,-0.0764 0.4192,-0.067 0.50712,0.0209 0.0879,0.0879 -0.0684,0.15045 -0.34726,0.13896 -0.30823,-0.0127 -0.37092,-0.0754 -0.15986,-0.15985 z m -8.00509,-1.1255 c -0.47281,-0.52245 -0.36955,-1.07827 0.19896,-1.07096 0.19402,0.002 0.16664,0.098 -0.0712,0.24843 -0.33065,0.20915 -0.3152,0.32301 0.10716,0.7897 0.27142,0.29993 0.43397,0.54532 0.36121,0.54532 -0.0728,0 -0.341,-0.23062 -0.59609,-0.51249 z m 13.34637,-1.47188 c 0.49365,-0.50933 0.95709,-0.92604 1.02985,-0.92604 0.0728,0 -0.27161,0.41671 -0.76527,0.92604 -0.49365,0.50932 -0.95708,0.92604 -1.02984,0.92604 -0.0728,0 0.2716,-0.41672 0.76526,-0.92604 z M -218.365,103.1875 c 0.1538,-1.07943 0.74996,-2.77812 0.97499,-2.77812 0.0685,0 -0.0343,0.44648 -0.22839,0.99218 -0.19409,0.54571 -0.47541,1.40891 -0.62514,1.91823 l -0.27226,0.92604 z m -38.52455,0.24254 c 0.0127,-0.30823 0.0754,-0.37092 0.15985,-0.15986 0.0764,0.191 0.067,0.4192 -0.0209,0.50712 -0.0879,0.0879 -0.15046,-0.0683 -0.13897,-0.34726 z m 23.74201,-0.82016 c 0.19099,-0.0764 0.41919,-0.067 0.50711,0.0209 0.0879,0.0879 -0.0683,0.15046 -0.34726,0.13897 -0.30823,-0.0127 -0.37092,-0.0754 -0.15985,-0.15986 z m 1.5875,0 c 0.19099,-0.0764 0.41919,-0.067 0.50711,0.0209 0.0879,0.0879 -0.0684,0.15046 -0.34726,0.13897 -0.30823,-0.0127 -0.37092,-0.0754 -0.15985,-0.15986 z m -25.59409,-0.76734 c 0.0127,-0.30823 0.0754,-0.37092 0.15985,-0.15986 0.0764,0.191 0.067,0.4192 -0.0209,0.50712 -0.0879,0.0879 -0.15045,-0.0684 -0.13896,-0.34726 z m 51.94909,-1.56546 c 0.0176,-1.130488 0.0976,-1.326695 0.54981,-1.348917 0.37561,-0.01846 0.39865,0.0056 0.0794,0.08281 -0.32425,0.07845 -0.47769,0.454904 -0.54981,1.348927 l -0.10004,1.2401 z m -52.21367,-0.022 c 0.0127,-0.308229 0.0754,-0.370924 0.15985,-0.15986 0.0764,0.191 0.067,0.4192 -0.0209,0.50712 -0.0879,0.0879 -0.15045,-0.0683 -0.13896,-0.34726 z m 23.88265,-0.509187 c -0.38236,-0.824375 -0.32967,-0.824095 0.38866,0.0021 0.34237,0.393757 0.44199,0.660627 0.24615,0.659397 -0.18094,-0.001 -0.4666,-0.29879 -0.63481,-0.661461 z m 23.32458,-1.188561 c 0.26339,-0.291042 0.53842,-0.529167 0.61119,-0.529167 0.0728,0 -0.0832,0.238125 -0.3466,0.529167 -0.26339,0.291042 -0.53842,0.529167 -0.61118,0.529167 -0.0728,0 0.0832,-0.238125 0.34659,-0.529167 z m -47.44113,-0.396875 c 0.005,-0.436563 0.0647,-0.583125 0.13178,-0.325694 0.0671,0.257431 0.0627,0.614619 -0.01,0.79375 -0.0725,0.179132 -0.12736,-0.03149 -0.12197,-0.468056 z m 23.54792,0 c 0.005,-0.436563 0.0647,-0.583125 0.13178,-0.325694 0.0671,0.257431 0.0627,0.614619 -0.01,0.79375 -0.0725,0.179132 -0.12736,-0.03149 -0.12197,-0.468056 z m 31.69842,0.29698 c 0,-0.05494 0.20836,-0.263301 0.46302,-0.463021 0.41965,-0.329107 0.42901,-0.319749 0.0999,0.0999 -0.34565,0.440729 -0.56292,0.580887 -0.56292,0.363126 z m 0.83553,-1.752188 c 0,-0.363803 0.06,-0.512631 0.13345,-0.33073 0.0734,0.181901 0.0734,0.479558 0,0.661459 -0.0734,0.181901 -0.13345,0.03307 -0.13345,-0.330729 z m -6.59995,-0.342368 c -0.0175,-0.1755 -0.21591,-0.970116 -0.44097,-1.765814 -0.22505,-0.795697 -0.40919,-2.377886 -0.40919,-3.515974 v -2.069252 l 1.09491,-1.114234 1.09492,-1.114234 -0.99565,1.161793 -0.99564,1.161794 0.12594,2.674665 c 0.0745,1.581328 0.29776,3.077885 0.54627,3.661074 0.23118,0.542525 0.32828,1.043303 0.21576,1.112841 -0.11251,0.06954 -0.21887,-0.01716 -0.23635,-0.192659 z m -49.7224,-1.377424 c 0.002,-0.727604 0.0534,-0.993858 0.11418,-0.591675 0.0608,0.402183 0.0592,0.997496 -0.004,1.322917 -0.0628,0.325421 -0.11256,-0.0036 -0.11057,-0.731242 z m 26.64724,-1.5875 c 0.34177,-0.363802 0.68094,-0.661459 0.7537,-0.661459 0.0728,0 -0.14734,0.297657 -0.48912,0.661459 -0.34177,0.363802 -0.68094,0.661458 -0.7537,0.661458 -0.0728,0 0.14734,-0.297656 0.48912,-0.661458 z m 30.95625,-0.529167 c 0.34177,-0.363802 0.68094,-0.661458 0.7537,-0.661458 0.0728,0 -0.14734,0.297656 -0.48912,0.661458 -0.34177,0.363802 -0.68094,0.661458 -0.7537,0.661458 -0.0728,0 0.14735,-0.297656 0.48912,-0.661458 z m -28.50886,-0.586384 c 0.40019,-0.06062 1.05503,-0.06062 1.45521,0 0.40018,0.06062 0.0728,0.110223 -0.7276,0.110223 -0.80037,0 -1.12779,-0.0496 -0.72761,-0.110223 z m 31.41928,-1.497886 c 0,-0.05494 0.20836,-0.263301 0.46302,-0.463021 0.41964,-0.329107 0.429,-0.319749 0.0999,0.09989 -0.34564,0.440729 -0.56291,0.580887 -0.56291,0.363126 z m -25.26771,-1.487605 c 0.71666,-0.727604 1.36255,-1.322917 1.43531,-1.322917 0.0728,0 -0.45407,0.595313 -1.17073,1.322917 -0.71666,0.727604 -1.36256,1.322917 -1.43532,1.322917 -0.0728,0 0.45407,-0.595313 1.17074,-1.322917 z m -35.24982,-1.852083 c 0,-0.654844 0.0516,-0.922735 0.11467,-0.595313 0.0631,0.327422 0.0631,0.863203 0,1.190625 -0.0631,0.327422 -0.11467,0.05953 -0.11467,-0.595312 z m 51.78628,-1.158229 c 0,-0.05494 0.20836,-0.263301 0.46302,-0.463021 0.41964,-0.329107 0.429,-0.319749 0.0999,0.0999 -0.34564,0.44073 -0.56291,0.580887 -0.56291,0.363126 z m 8.22297,-1.112778 c 0.0127,-0.308225 0.0754,-0.37092 0.15985,-0.159853 0.0764,0.190996 0.067,0.419199 -0.0209,0.507118 -0.0879,0.08792 -0.15045,-0.06835 -0.13896,-0.347265 z m -6.03294,-1.353011 c 0.80315,-0.901803 1.74029,-2.236375 2.08252,-2.965717 0.34223,-0.729341 0.71897,-1.330956 0.83719,-1.33692 0.49303,-0.02488 -1.38803,2.867099 -2.82663,4.345722 l -1.55335,1.596557 z m -53.74201,0.449017 c 0,-0.363802 0.0601,-0.51263 0.13345,-0.330729 0.0734,0.181901 0.0734,0.479558 0,0.661459 -0.0734,0.181901 -0.13345,0.03307 -0.13345,-0.33073 z m 59.54106,-0.926041 c 0.005,-0.436563 0.0647,-0.583125 0.13177,-0.325694 0.0671,0.257431 0.0627,0.614619 -0.01,0.79375 -0.0725,0.179132 -0.12737,-0.03149 -0.12197,-0.468056 z m -59.27648,-1.190625 c 0,-0.363802 0.0601,-0.512631 0.13346,-0.33073 0.0734,0.181902 0.0734,0.479558 0,0.661459 -0.0734,0.181901 -0.13346,0.03307 -0.13346,-0.330729 z m 0.2437,-1.741841 c 0.0127,-0.308224 0.0754,-0.370919 0.15985,-0.159852 0.0764,0.190996 0.067,0.419199 -0.0209,0.507118 -0.0879,0.08792 -0.15045,-0.06835 -0.13896,-0.347266 z m 39.97297,-1.962326 c 0,-0.363802 0.0601,-0.51263 0.13345,-0.330729 0.0734,0.181901 0.0734,0.479557 0,0.661458 -0.0734,0.181901 -0.13345,0.03307 -0.13345,-0.330729 z m 3.4187,-12.060591 c 0.0127,-0.308224 0.0754,-0.370919 0.15985,-0.159852 0.0764,0.190996 0.067,0.419199 -0.0209,0.507118 -0.0879,0.08792 -0.15045,-0.06835 -0.13896,-0.347266 z m -8.008,-2.40765 c 0.191,-0.07643 0.4192,-0.06703 0.50712,0.02089 0.0879,0.08792 -0.0684,0.150453 -0.34727,0.138964 -0.30822,-0.0127 -0.37092,-0.07539 -0.15985,-0.159852 z m -1.66831,-0.345396 c -0.0927,-0.149981 0.0135,-0.194338 0.24897,-0.103984 0.45837,0.175893 0.54223,0.365537 0.16165,0.365537 -0.13694,0 -0.32171,-0.117699 -0.41062,-0.261553 z m 5.09136,0.07483 c 0.32742,-0.06306 0.8632,-0.06306 1.19062,0 0.32742,0.06306 0.0595,0.114662 -0.59531,0.114662 -0.65484,0 -0.92274,-0.0516 -0.59531,-0.114662 z m -11.76893,-0.261212 c 0.25743,-0.06708 0.61462,-0.06267 0.79375,0.0098 0.17913,0.07247 -0.0315,0.127362 -0.46805,0.121969 -0.43657,-0.0054 -0.58313,-0.06469 -0.3257,-0.131773 z m -21.50243,-0.182563 c 0,-0.283948 0.78724,-1.75075 0.93963,-1.75075 0.0728,0 -0.0645,0.386953 -0.30503,0.859896 -0.49112,0.965703 -0.6346,1.167113 -0.6346,0.890854 z m 18.48709,-1.420021 c -0.32911,-0.419644 -0.31975,-0.429002 0.0999,-0.0999 0.44073,0.345644 0.58089,0.562916 0.36313,0.562916 -0.055,0 -0.2633,-0.208359 -0.46302,-0.463021 z m -16.37042,-2.711979 c 0.15576,-0.291042 0.34273,-0.529167 0.41549,-0.529167 0.0728,0 0.005,0.238125 -0.15091,0.529167 -0.15576,0.291041 -0.34273,0.529166 -0.41549,0.529166 -0.0728,0 -0.005,-0.238125 0.15091,-0.529166 z m 1.85208,-3.010312 c 0,-0.05494 0.20836,-0.263301 0.46302,-0.463021 0.41965,-0.329107 0.429,-0.319749 0.0999,0.0999 -0.34565,0.440729 -0.56292,0.580887 -0.56292,0.363126 z m 11.74882,-1.289168 -0.50403,-0.595312 0.59532,0.504028 c 0.55944,0.473662 0.71576,0.686597 0.50402,0.686597 -0.0502,0 -0.31809,-0.267891 -0.59531,-0.595313 z m -4.91926,-1.172928 c 0.19099,-0.07643 0.4192,-0.06703 0.50712,0.02089 0.0879,0.08792 -0.0683,0.150453 -0.34727,0.138965 -0.30822,-0.0127 -0.37092,-0.07539 -0.15985,-0.159853 z m 2.38125,0 c 0.19099,-0.07643 0.4192,-0.06703 0.50712,0.02089 0.0879,0.08792 -0.0684,0.150453 -0.34727,0.138965 -0.30822,-0.0127 -0.37092,-0.07539 -0.15985,-0.159853 z m 29.91378,-4.780197 c -0.32911,-0.419644 -0.31975,-0.429002 0.0999,-0.09989 0.44073,0.345644 0.58089,0.562916 0.36313,0.562916 -0.0549,0 -0.2633,-0.208359 -0.46302,-0.463021 z m 7.54911,0.157557 c -0.12213,-0.1976 -0.072,-0.233275 0.14199,-0.101029 0.21108,0.130452 0.82431,-0.261691 1.69453,-1.083599 l 1.36374,-1.288033 -1.31297,1.389062 c -1.38207,1.462169 -1.58228,1.577121 -1.88729,1.083599 z m -8.73113,-1.083599 -0.50403,-0.595312 0.59532,0.504028 c 0.55944,0.473662 0.71576,0.686597 0.50402,0.686597 -0.0502,0 -0.31809,-0.267891 -0.59531,-0.595313 z m -1.97348,-1.719791 -0.9118,-0.992188 0.99219,0.911799 c 0.5457,0.501489 0.99219,0.947973 0.99219,0.992187 0,0.202041 -0.2239,0.01171 -1.07258,-0.911798 z m 21.14716,0.529166 c -0.3291,-0.419643 -0.31974,-0.429002 0.0999,-0.09989 0.25466,0.199719 0.46302,0.408078 0.46302,0.46302 0,0.217762 -0.21727,0.0776 -0.56292,-0.363126 z m -2.94281,-0.770541 c 0.1819,-0.0734 0.47956,-0.0734 0.66146,0 0.1819,0.0734 0.0331,0.133453 -0.33073,0.133453 -0.3638,0 -0.51263,-0.06005 -0.33073,-0.133453 z m -19.35545,-1.106779 c -0.076,-0.12302 -0.19817,-0.748098 -0.27143,-1.389062 -0.12927,-1.131099 -0.0984,-1.069306 0.37634,0.752841 0.21791,0.836409 0.17598,1.090706 -0.10491,0.636221 z m 33.57681,-0.305492 c 0.26338,-0.291042 0.53842,-0.529167 0.61118,-0.529167 0.0728,0 -0.0832,0.238125 -0.3466,0.529167 -0.26339,0.291042 -0.53842,0.529167 -0.61118,0.529167 -0.0728,0 0.0832,-0.238125 0.3466,-0.529167 z m -34.19682,-3.307292 c 0.003,-0.582083 0.0571,-0.789055 0.1204,-0.459936 0.0633,0.329119 0.0609,0.805369 -0.005,1.058333 -0.0662,0.252965 -0.118,-0.01631 -0.11506,-0.598397 z m 40.22112,-0.315645 c 0.25743,-0.06708 0.61462,-0.06267 0.79375,0.0098 0.17913,0.07248 -0.0315,0.127362 -0.46805,0.12197 -0.43657,-0.0054 -0.58313,-0.06469 -0.3257,-0.131773 z m 3.58338,-0.261971 c 0.19099,-0.07643 0.4192,-0.06703 0.50712,0.02089 0.0879,0.08792 -0.0683,0.150452 -0.34727,0.138964 -0.30822,-0.0127 -0.37092,-0.07539 -0.15985,-0.159853 z m -52.79728,-0.538286 c 0.40219,-0.06081 0.9975,-0.05919 1.32292,0.0036 0.32542,0.0628 -0.004,0.11256 -0.73124,0.110574 -0.72761,-0.002 -0.99386,-0.05337 -0.59168,-0.114186 z m 2.79103,-0.255464 c 0.19099,-0.07643 0.4192,-0.06703 0.50711,0.02089 0.0879,0.08792 -0.0684,0.150452 -0.34726,0.138964 -0.30823,-0.0127 -0.37092,-0.07539 -0.15985,-0.159853 z m 52.83398,-0.348426 c 0.26339,-0.291041 0.53842,-0.529166 0.61118,-0.529166 0.0728,0 -0.0832,0.238125 -0.34659,0.529166 -0.26339,0.291042 -0.53842,0.529167 -0.61119,0.529167 -0.0728,0 0.0832,-0.238125 0.3466,-0.529167 z m -50.99844,0.08936 c 0.1819,-0.0734 0.47956,-0.0734 0.66146,0 0.1819,0.0734 0.0331,0.133452 -0.33073,0.133452 -0.3638,0 -0.51263,-0.06005 -0.33073,-0.133452 z m 1.60404,-0.0055 c 0.191,-0.07643 0.4192,-0.06703 0.50712,0.02089 0.0879,0.08792 -0.0684,0.150453 -0.34727,0.138965 -0.30822,-0.0127 -0.37092,-0.07539 -0.15985,-0.159853 z m -9.89741,-0.943739 -0.50402,-0.595312 0.59531,0.504028 c 0.55945,0.473662 0.71576,0.686597 0.50403,0.686597 -0.0502,0 -0.3181,-0.267891 -0.59532,-0.595313 z m -1.02543,-1.506338 c -0.31492,-0.608997 -0.33082,-0.820089 -0.0729,-0.968462 0.18137,-0.104349 0.24522,-0.09601 0.14188,0.01853 -0.10334,0.114541 -0.011,0.550348 0.20523,0.968461 0.21621,0.418113 0.33359,0.760205 0.26083,0.760205 -0.0728,0 -0.31351,-0.35043 -0.535,-0.778734 z m 61.79334,-1.227689 c 0.0127,-0.308225 0.0754,-0.37092 0.15985,-0.159853 0.0764,0.190996 0.067,0.419199 -0.0209,0.507118 -0.0879,0.08792 -0.15045,-0.06835 -0.13896,-0.347265 z m -0.26458,-1.587501 c 0.0127,-0.308224 0.0754,-0.370919 0.15985,-0.159852 0.0764,0.190996 0.067,0.419199 -0.0209,0.507118 -0.0879,0.08792 -0.15045,-0.06835 -0.13896,-0.347266 z m -41.3455,-6.3764 c 0.19099,-0.07643 0.4192,-0.06703 0.50711,0.02089 0.0879,0.08792 -0.0684,0.150453 -0.34726,0.138964 -0.30823,-0.01269 -0.37092,-0.07539 -0.15985,-0.159852 z m 1.32291,-0.264583 c 0.191,-0.07643 0.4192,-0.06703 0.50712,0.02089 0.0879,0.08792 -0.0684,0.150453 -0.34726,0.138964 -0.30823,-0.0127 -0.37092,-0.07539 -0.15986,-0.159852 z m 3.175,-0.529167 c 0.191,-0.07643 0.4192,-0.06703 0.50712,0.02089 0.0879,0.08792 -0.0684,0.150453 -0.34726,0.138964 -0.30823,-0.0127 -0.37092,-0.07539 -0.15986,-0.159852 z m 1.97288,-0.267197 c 0.25743,-0.06708 0.61462,-0.06267 0.79375,0.0098 0.17913,0.07248 -0.0315,0.127362 -0.46806,0.12197 -0.43656,-0.0054 -0.58312,-0.06469 -0.32569,-0.131774 z m 13.621,0.0081 c 0.18191,-0.0734 0.47956,-0.0734 0.66146,0 0.1819,0.0734 0.0331,0.133452 -0.33073,0.133452 -0.3638,0 -0.51263,-0.06005 -0.33073,-0.133452 z m -10.45104,-0.278864 c 0.40018,-0.06062 1.05503,-0.06062 1.45521,0 0.40018,0.06062 0.0728,0.110223 -0.7276,0.110223 -0.80037,0 -1.12779,-0.0496 -0.72761,-0.110223 z m 6.35,0 c 0.40018,-0.06062 1.05503,-0.06062 1.45521,0 0.40018,0.06062 0.0728,0.110223 -0.7276,0.110223 -0.80037,0 -1.12779,-0.0496 -0.72761,-0.110223 z"
         id="path2" />
      <path
         style="fill:#00953e"
         d="m -168.8006,149.36432 c -1.32211,-2.59156 -3.28591,-3.63112 -6.32925,-3.35048 -1.50552,0.13884 -1.79032,0.25991 -2.54216,1.08072 -0.46568,0.50841 -1.16899,1.04691 -1.5629,1.19668 -0.93909,0.35704 -3.62325,0.34882 -4.56715,-0.014 l -0.74483,-0.28629 0.92604,-0.50041 c 1.80152,-0.9735 4.40899,-1.57435 7.97165,-1.83696 1.94575,-0.14342 4.0956,-0.32434 4.77744,-0.40205 1.10463,-0.12589 1.31567,-0.0613 1.9369,0.59317 0.38346,0.40395 1.05879,1.44106 1.50075,2.30468 0.76143,1.48792 0.77861,1.58847 0.32763,1.91823 -0.76741,0.56114 -1.12472,0.41281 -1.69412,-0.7033 z m -53.77597,-0.71611 c -0.97997,-0.51835 -1.71708,-1.04711 -1.63803,-1.17502 0.079,-0.12791 0.81085,-0.23256 1.62622,-0.23256 1.5017,0 2.30414,-0.33871 4.77525,-2.01566 1.56452,-1.06171 4.42489,-0.77127 9.05686,0.91965 2.24737,0.8204 3.92165,1.02315 5.07601,0.61468 0.33689,-0.11922 1.38644,-0.14898 2.33233,-0.0661 l 1.71979,0.1506 -1.17375,0.86683 c -1.53542,1.13393 -3.56024,1.71926 -5.18509,1.49891 -0.68898,-0.0934 -2.59048,-0.63242 -4.22557,-1.19774 -3.78979,-1.31029 -6.01862,-1.44766 -7.33767,-0.45226 -0.47484,0.35833 -1.39912,0.96194 -2.05396,1.34135 l -1.19063,0.68984 z m 34.97855,-2.64822 -0.85699,-0.97606 0.96713,-0.33483 c 0.86057,-0.29794 1.0686,-0.27497 1.88792,0.20844 0.50643,0.2988 0.92078,0.64086 0.92078,0.76014 0,0.20499 -1.6232,1.31836 -1.92205,1.31836 -0.0769,0 -0.52545,-0.43922 -0.99679,-0.97605 z m -11.36866,-2.58777 c 2.20304,-2.34349 4.07744,-2.8699 7.67291,-2.15489 1.56705,0.31163 1.66105,0.36649 1.05834,0.61767 -0.36381,0.15161 -1.13771,0.47763 -1.7198,0.72449 -0.58208,0.24686 -1.59411,0.50804 -2.24895,0.5804 -0.65485,0.0724 -1.47366,0.31391 -1.81958,0.53679 -0.34592,0.22287 -1.35795,0.46719 -2.24896,0.54292 l -1.62001,0.13769 z m 46.5927,-5.21242 -1.32091,-1.63249 0.54239,-0.76172 c 0.29832,-0.41895 0.63603,-0.72613 0.75048,-0.68262 0.11444,0.0435 0.77296,0.77526 1.46338,1.62611 l 1.25531,1.547 2.54426,-2.47257 c 1.84669,-1.79465 1.67489,-1.58406 -0.6266,0.76811 -1.74398,1.78237 -3.19709,3.24067 -3.22913,3.24067 -0.032,0 -0.65268,-0.73462 -1.37918,-1.63249 z m -4.03966,-5.84199 -1.197,-2.18281 1.06726,-0.19308 c 0.587,-0.1062 1.08671,-0.16573 1.11048,-0.13229 0.0238,0.0334 0.46503,0.78959 0.98059,1.68034 l 0.93738,1.61955 -0.79267,0.69555 c -0.43596,0.38256 -0.81885,0.69556 -0.85085,0.69556 -0.032,0 -0.59684,-0.98227 -1.25519,-2.18282 z m 12.348,0.0661 c 0.26339,-0.29104 0.53842,-0.52917 0.61118,-0.52917 0.0728,0 -0.0832,0.23813 -0.3466,0.52917 -0.26339,0.29104 -0.53842,0.52917 -0.61118,0.52917 -0.0728,0 0.0832,-0.23813 0.3466,-0.52917 z m -101.20732,-3.08982 c -14.635,-19.75991 -16.65564,-45.813678 -5.25946,-67.814545 2.80169,-5.408798 3.21527,-5.894936 5.70927,-6.710929 4.94466,-1.617808 7.50176,-1.486205 9.33949,0.480665 0.64921,0.694824 0.7403,1.193001 0.78578,4.297356 0.0135,0.920383 0.64283,1.654912 2.57964,3.010795 1.66662,1.166734 2.33573,1.206788 4.39602,0.263157 0.97971,-0.448717 1.95656,-0.815848 2.17077,-0.815848 0.21422,0 0.86275,0.427564 1.44119,0.950143 l 1.05169,0.950144 3.6924,0.04204 c 4.22772,0.04814 4.89924,0.312897 5.53937,2.183981 0.4685,1.369414 0.14681,2.765395 -1.51477,6.57344 -1.4094,3.230095 -1.97428,5.356958 -1.71276,6.44885 0.3084,1.287581 0.88657,2.165982 1.42569,2.165982 0.43374,0 0.52237,0.181014 0.52237,1.066831 0,0.586757 -0.16682,1.466103 -0.37072,1.954101 -0.31765,0.760236 -0.61716,0.969279 -2.09196,1.460059 -1.92949,0.642095 -4.68968,2.763999 -6.22217,4.783319 -1.22279,1.611239 -1.71928,1.839812 -3.61827,1.665765 -2.19296,-0.200989 -3.20609,0.275431 -4.68587,2.203525 -1.33833,1.74379 -2.06101,3.034026 -2.06101,3.679626 0,0.239435 0.2021,0.777466 0.44911,1.195623 0.24702,0.418158 0.35616,0.85325 0.24254,0.96687 -0.11362,0.11362 -1.04061,0.20658 -2.05999,0.20658 -1.62677,0 -1.91505,-0.0761 -2.35743,-0.622448 -0.3612,-0.446056 -0.45116,-0.820938 -0.31747,-1.322916 0.20167,-0.757232 0.1889,-1.22434 -0.075,-2.742102 -0.23102,-1.328816 0.54069,-2.872445 2.50223,-5.005144 l 1.53321,-1.666996 2.29614,-0.141034 c 2.09334,-0.128578 2.33652,-0.201016 2.75336,-0.820164 0.25147,-0.373522 1.31817,-1.464179 2.37045,-2.423682 1.41572,-1.290899 2.31015,-1.876511 3.43959,-2.252011 1.8168,-0.604025 2.07075,-1.222778 1.01619,-2.47604 -1.44605,-1.718535 -1.29416,-4.154446 0.51806,-8.308721 0.69829,-1.600729 1.32318,-3.459697 1.38865,-4.131039 0.17939,-1.83952 -0.32095,-2.08667 -4.22434,-2.08667 -3.10256,0 -3.10825,-0.0012 -4.04875,-0.826931 l -0.94182,-0.826932 -1.54787,0.69464 c -0.85132,0.382052 -1.8228,0.69464 -2.15884,0.69464 -0.98115,0 -2.77068,-0.998342 -4.20746,-2.347259 l -1.3331,-1.251583 v -1.750814 c 0,-2.148574 -0.12766,-2.503452 -1.07726,-2.994505 -1.38079,-0.714036 -4.03911,-0.370264 -7.26673,0.939729 -1.29704,0.52643 -1.44555,0.691215 -2.81203,3.120211 -3.25626,5.788195 -5.30054,11.59961 -6.48642,18.43943 -0.64806,3.737851 -0.64806,13.989233 0,17.727084 1.03483,5.968607 2.73076,11.094987 5.42689,16.404167 1.64563,3.24056 4.91508,8.29085 5.5168,8.52175 0.57375,0.22017 2.81139,-2.10526 3.62535,-3.76758 0.37967,-0.77539 0.88397,-2.28135 1.12067,-3.34657 0.2367,-1.06522 0.65291,-2.88926 0.92491,-4.05343 0.6455,-2.76269 3.74005,-9.16388 4.93906,-10.21663 1.10332,-0.96872 1.40735,-0.96434 1.21099,0.0175 -0.13833,0.69165 -0.0702,0.80264 0.59537,0.96968 0.66394,0.16664 3.19554,-0.14074 4.75909,-0.57783 0.57227,-0.15998 0.92456,0.38446 1.30323,2.014 0.1459,0.62787 0.0412,0.71405 -1.55021,1.27586 -0.93867,0.33138 -1.9642,0.87664 -2.27897,1.21169 -0.60077,0.6395 -3.43003,6.03194 -4.2508,8.10185 -0.26358,0.66473 -0.85785,2.98645 -1.32061,5.15938 -1.03666,4.8678 -2.06177,7.21719 -4.06297,9.31168 -0.79784,0.83505 -1.79647,1.72124 -2.21917,1.96933 l -0.76854,0.45105 z m 102.13336,1.93159 c 0,-0.0549 0.20836,-0.2633 0.46302,-0.46302 0.41965,-0.32911 0.429,-0.31975 0.0999,0.0999 -0.34565,0.44072 -0.56292,0.58088 -0.56292,0.36312 z m 1.05834,-1.32291 c 0,-0.055 0.20835,-0.26331 0.46302,-0.46303 0.41964,-0.3291 0.429,-0.31974 0.0999,0.0999 -0.34564,0.44073 -0.56291,0.58089 -0.56291,0.36313 z m -21.16667,-8.66275 c 0,-0.49876 0.23082,-0.77442 0.92604,-1.10595 0.50932,-0.24288 0.92604,-0.34782 0.92604,-0.2332 0,0.11462 -0.41672,0.6123 -0.92604,1.10596 l -0.92604,0.89755 z m -62.24323,-4.38433 c -0.25467,-0.0666 -0.46302,-0.29568 -0.46302,-0.50919 0,-0.28952 0.28031,-0.37165 1.10276,-0.32313 1.03676,0.0612 1.18562,-0.0261 2.4872,-1.45834 0.76144,-0.83787 1.56792,-1.90225 1.79217,-2.36528 0.34963,-0.72191 0.43415,-0.77307 0.59305,-0.35898 0.26643,0.69432 -0.41687,1.95249 -2.00277,3.68772 -1.40116,1.53309 -1.94071,1.73714 -3.50939,1.3272 z m 6.28385,-9.97828 c -0.43656,-0.1927 -1.02714,-0.61203 -1.3124,-0.93184 -0.44208,-0.49563 -0.46161,-0.61754 -0.13229,-0.82585 0.44883,-0.28389 0.45346,-0.28423 4.61969,-0.34129 2.81956,-0.0386 3.34027,-0.12099 4.6513,-0.73582 0.93402,-0.43802 1.89625,-1.17987 2.61958,-2.0196 1.02747,-1.19283 1.15008,-1.48099 1.21049,-2.844905 0.0822,-1.855788 0.46006,-2.289971 2.30689,-2.650714 l 1.38257,-0.27006 0.17993,-1.625502 c 0.26839,-2.424836 0.98729,-3.508806 3.39195,-5.114463 0.50932,-0.340089 0.96467,-0.645921 1.01189,-0.679627 0.0472,-0.03371 -0.14934,-1.173592 -0.43679,-2.533078 -0.28745,-1.359487 -0.60239,-3.155198 -0.69986,-3.990469 -0.1,-0.856558 -0.33688,-1.608015 -0.5434,-1.723593 -0.22784,-0.127507 -0.28309,-0.339355 -0.14624,-0.56078 0.18377,-0.297339 0.38034,-0.297855 1.19536,-0.0031 0.53649,0.193996 1.0991,0.501728 1.25024,0.683848 0.15115,0.18212 0.39381,1.316337 0.53924,2.520483 0.14543,1.204145 0.52904,3.239468 0.85246,4.522939 l 0.58804,2.333583 -0.68099,0.52543 c -0.37455,0.288986 -1.24615,0.940669 -1.93689,1.448183 -1.52787,1.122579 -1.93376,1.866502 -2.17651,3.98915 -0.22529,1.969883 -0.72521,2.520437 -2.47091,2.721181 l -1.24043,0.14264 -0.0102,1.655544 -0.0102,1.65554 -1.57734,1.60673 c -1.76162,1.79445 -3.27917,2.67742 -5.36068,3.11907 -1.91133,0.40554 -6.07743,0.36215 -7.06458,-0.0736 z m 0.9614,-2.80392 c 0.015,-0.3638 0.11814,-1.01864 0.22923,-1.45521 0.19456,-0.76461 0.20297,-0.7549 0.22922,0.26459 0.015,0.58208 -0.0882,1.23692 -0.22922,1.45521 -0.20133,0.31152 -0.25062,0.25462 -0.22923,-0.26459 z m 0.66574,-3.05059 c 0.10617,-0.27667 0.33379,-0.34777 0.7193,-0.22467 0.93187,0.29757 2.64955,0.17563 3.69823,-0.26254 0.54252,-0.22667 0.92231,-0.30845 0.84399,-0.18173 -0.27438,0.44397 -2.63043,1.0737 -4.01707,1.0737 -1.14766,0 -1.3718,-0.0729 -1.24445,-0.40476 z m 8.69161,-3.563991 c 0.56839,-0.582084 1.09297,-1.058334 1.16573,-1.058334 0.0728,0 -0.33276,0.47625 -0.90115,1.058334 -0.56839,0.582083 -1.09296,1.058333 -1.16572,1.058333 -0.0728,0 0.33275,-0.47625 0.90114,-1.058333 z m 0.65847,-2.182813 c -0.17563,-0.472943 -0.35853,-2.110052 -0.40643,-3.638021 l -0.0871,-2.778125 0.24839,2.19161 c 0.13661,1.205385 0.42692,2.61891 0.64513,3.141166 0.44567,1.066631 0.51696,1.943266 0.15805,1.943266 -0.13129,0 -0.3824,-0.386953 -0.55804,-0.859896 z m 0.78568,-7.672917 c 1.09643,-1.168186 1.33398,-1.378239 1.33398,-1.179568 0,0.04246 -0.56555,0.608009 -1.25677,1.256771 L -208.62398,88.9 Z m 2.65689,-2.711979 c 0.34178,-0.363802 0.68094,-0.661459 0.7537,-0.661459 0.0728,0 -0.14734,0.297657 -0.48911,0.661459 -0.34178,0.363802 -0.68094,0.661458 -0.7537,0.661458 -0.0728,0 0.14734,-0.297656 0.48911,-0.661458 z m -4.54673,-36.87216 c -1.06456,-0.852655 -2.2174,-1.85744 -2.56186,-2.232854 -0.6432,-0.700982 -1.3466,-3.095974 -1.35394,-4.609993 -0.004,-0.809174 -0.0815,-0.875006 -1.52549,-1.295204 -1.30917,-0.380956 -1.8392,-0.400438 -3.8003,-0.139683 -5.07084,0.674239 -6.90426,0.140837 -8.19264,-2.383515 l -0.49341,-0.966741 0.65558,-0.429556 c 0.63662,-0.417127 0.67922,-0.402646 1.47215,0.500451 1.13833,1.296489 2.38741,1.625295 4.71436,1.241006 3.74829,-0.619015 7.61109,-0.157481 8.19247,0.978848 0.12282,0.240065 0.29459,1.238581 0.3817,2.218925 0.0871,0.980343 0.31801,2.087104 0.51311,2.459468 0.51363,0.980297 4.16706,3.894818 4.67327,3.7281 0.22909,-0.07545 1.15238,-0.408328 2.05176,-0.739733 1.42921,-0.52664 1.77816,-0.564404 2.76969,-0.299749 1.09747,0.292933 1.16632,0.274022 2.11167,-0.580045 1.27243,-1.149562 1.79573,-1.41503 3.38256,-1.715966 1.79163,-0.339776 5.37495,0.08763 6.5507,0.781341 1.23576,0.729117 2.37595,0.677292 5.64285,-0.256483 1.52736,-0.436563 2.80821,-0.793751 2.84633,-0.793751 0.0381,0 0.9575,-0.823531 2.04306,-1.83007 2.44054,-2.2629 3.80318,-2.818178 7.74753,-3.157114 1.58999,-0.136628 3.14904,-0.409626 3.46455,-0.606663 0.31551,-0.197038 0.77176,-0.877001 1.0139,-1.51103 0.36264,-0.949557 0.39047,-1.392761 0.15789,-2.514056 -0.1553,-0.748701 -0.26035,-1.386319 -0.23344,-1.416927 0.0269,-0.03061 0.30431,0.01114 0.61646,0.09276 1.01119,0.264433 1.45829,3.557738 0.72218,5.319515 -0.89392,2.139447 -1.86512,2.648347 -5.63209,2.951153 -3.61583,0.290657 -4.89283,0.832889 -7.19433,3.054804 -1.27314,1.229106 -2.06598,1.77159 -2.92202,1.999314 -0.64615,0.171886 -2.17039,0.599292 -3.38722,0.949791 -2.72455,0.784788 -4.23157,0.819391 -5.12369,0.117647 -1.33742,-1.052012 -5.20782,-1.414924 -7.02604,-0.658802 -0.54103,0.224991 -1.53444,0.950077 -2.20757,1.611303 l -1.22388,1.202228 -0.8135,-0.420678 c -1.12226,-0.580343 -1.92117,-0.52905 -3.7502,0.24078 -0.86436,0.363802 -1.74594,0.661458 -1.95907,0.661458 -0.21313,0 -1.25852,-0.697627 -2.32308,-1.550283 z"
         id="path1" />
    </g>
  </g>
</svg>
